<?xml version="1.0" encoding="utf-8"?>
<!-- Generator: Adobe Illustrator 24.0.2, SVG Export Plug-In . SVG Version: 6.00 Build 0)  -->
<svg version="1.1" id="Layer_1" xmlns="http://www.w3.org/2000/svg" xmlns:xlink="http://www.w3.org/1999/xlink" x="0px" y="0px"
	 viewBox="0 0 124.6 58.2" enable-background="new 0 0 124.6 58.2" xml:space="preserve">
<path fill-rule="evenodd" clip-rule="evenodd" fill="#6CBABF" d="M100.6,9.5V8.7h-4.2v-1h-1.9v1H92v0.9h-1.4V21h-1.1v0.6h-0.2v-9.8
	h-0.9v-1.1h-3V8.5h-0.3v2.2h-0.4v1.1h-7.6V21h-1.6v-9.9h-5V9.8h-3.7v1.3h-0.9v0.4h-3V12h-2.7v8.1h-1V15h-7.8v-1.2h-2V15h-2.1v3.2H47
	v0.2h-0.4v-0.9h-0.4v-0.7h-1.4c0,0,0-0.5-0.3-0.6c0-0.5,0-3,0-3s0.3-0.3,0.3-0.8c-0.1-0.5-0.8-0.8-0.8-0.8s0.2-0.2,0.1-0.3
	c-0.1-0.1-0.6-0.3-0.4-0.7c0.1-0.4,0.4-0.9,0-1.3c-0.4-0.4-0.4-0.6-0.4-0.6s-0.3-3-2.4-4.3c0-0.6-0.5-0.9-0.5-0.9V2.4
	c0,0-0.2-0.6-0.5-0.8l0,0c0-0.1-0.1-0.2-0.2-0.2h0.1V1.3V1.1l0.1-0.2V0.8V0.7l0,0v0.2H40l0,0V0.7l-0.1-0.2c0,0,0,0-0.1,0l0,0V0.4
	c0,0,0-0.1-0.1-0.1c0,0,0,0-0.1,0c0,0,0,0,0,0.1L39.5,0l0,0l0,0l0,0l0,0l0.1,0.1l0,0c0,0-0.1,0.1,0,0.2l0.1,0.1v0.2v0.1
	c0,0,0,0,0,0.1v0.3v0.1l0.1,0.1l0,0l0,0l0,0l0,0c-0.1,0-0.2,0.1-0.2,0.2l0,0c-0.3,0.2-0.5,0.8-0.5,0.8v1.1c0,0-0.5,0.5-0.5,0.9
	c-2.1,1.3-2.4,4.3-2.4,4.3s0,0.2-0.4,0.6c-0.4,0.4-0.1,0.9,0,1.3c0.1,0.4-0.3,0.6-0.4,0.7c-0.1,0.1,0.1,0.3,0.1,0.3
	s-0.7,0.3-0.8,0.8s0.3,0.8,0.3,0.8s0,2.5,0,3c-0.3,0.1-0.3,0.6-0.3,0.6h-1.4v0.7h-0.4v0.9h-0.4v-0.2h-0.1v-7.4h-0.2v-1H32V9.2h-1.7
	V7.7h-1.5V7.3h-0.5v0.3h-3v0.7h-0.2v0.5l-0.5,0.7v0.8l-0.3,0.3v0.8l-0.5,0.3v1l0.5,0.1v1h0.4v10.1h-0.4v-8H24v-0.7h-5.3l-1.4,0.4
	v8.3h-0.2v-0.4h-0.4v-7.1h-3.8v-0.9l-1.6-0.4v0.4v0.8h-0.5v0.2h-0.3l-0.3,0.2H8.7v-0.5H8v0.2l-1.2,0.3v6.1H5.4c0,0,0,0,0,1
	c-0.8,0.1-1.6,0.7-1.6,0.7v2l0,0l0,0l0,0l-3.7,0.3v0.5h24.5H26h1v-4.9h2v-1.2h5.6V20h3.6v1.2h1.7v-0.8h0.8v-0.3h-0.6v-0.3h2.8v0.3
	h-0.6v0.3h1.1V21h0.7v0.5h2.8V21h0.6v0.5h2.9V21h0.7v0.5h3.1V21h0.7v0.5H58V21h0.5v0.5h2.9V21H62v0.5h2.7V21h0.4v0.5h2.6v-1H69v-0.3
	h-0.6v-0.3h2.8v0.3h-0.6v0.3H72v0.6h5.2v2.6h1.4v3.7h0.6h2h0.1h31.9h0.7h0.9h0.4h0.9h0.1h0.3h0.2h7.1h0.7v-1.9h-0.7v-1.1l-0.1-0.2
	v-2.6h0.1v-0.1h-0.1v-0.1h-0.1v-1.5v-0.1h-0.1v-0.4h-0.1v-0.1v-0.1v-0.7l0,0c0,0-0.2-0.8-0.6-1.2c0-0.1,0-0.1-0.1-0.1l0,0V17h0.2
	v-0.1h-0.2v-0.2h-0.1v0.2h-0.2V17h0.2v0.5l0,0c-0.1,0-0.1,0.1-0.1,0.1c-0.4,0.4-0.6,1.2-0.6,1.2l0,0v0.7l0.1,0.1v0.2h-0.1V20h-0.1
	l0.1,0.1v1.5l0,0v0.1h-0.1v0.1h0.1v0.9l-1-0.8l-2.4,1.8h-0.2l-0.1-0.1V23l0,0l0,0v-0.1h-0.1v-0.1v0.1H118V23l0,0l0,0v0.6l-0.1,0.1
	v0.1v0.9l-0.9,0.7l-0.1-0.1v-0.6l0,0l0,0v-0.1h-0.1v-0.1v0.1h-0.1v0.1l0,0l0,0v0.6l-0.1,0.1v0.1v1.1h-0.3V15.7h-2.8v-1.1h-1.9V13
	h-0.8v-0.5h-0.5V13h-1v-0.5H109V13h-0.3v-0.2h-0.2V13h-1.2v-0.4h-0.2V13h-2v1.6h-2.5v1.1h-0.5V9.5H100.6L100.6,9.5z M117.6,27.4
	L117.6,27.4h-0.8v-0.8h0.8V27.4L117.6,27.4z M117.6,26.5L117.6,26.5L117.6,26.5l-0.8,0.1v-0.1l0,0c0-0.2,0.2-0.4,0.4-0.4
	C117.5,26.1,117.6,26.3,117.6,26.5L117.6,26.5L117.6,26.5z M120.6,23.8L120.6,23.8c0.1,0,0.1,0.1,0.1,0.1l0,0v-0.2l0,0
	c0-0.1,0.1-0.1,0.1-0.1c0.1,0,0.1,0.1,0.1,0.1l0,0v0.2l0,0c0-0.1,0.1-0.1,0.1-0.1c0.1,0,0.1,0.1,0.1,0.1l0,0v0.9h-0.8v-0.9l0,0
	C120.5,23.9,120.5,23.8,120.6,23.8L120.6,23.8z M119.1,25L119.1,25v1.7h-0.3V25l0,0c0-0.1,0.1-0.1,0.1-0.1
	C119.1,24.8,119.1,24.9,119.1,25C119.1,24.9,119.1,24.9,119.1,25L119.1,25z M121.4,27.4L121.4,27.4h-1v-1.1h1V27.4L121.4,27.4z
	 M121.4,26.2L121.4,26.2L121.4,26.2l-1,0.1v-0.1c0,0,0,0,0-0.1c0-0.3,0.2-0.5,0.5-0.5C121.2,25.6,121.4,25.8,121.4,26.2
	C121.4,26.1,121.4,26.1,121.4,26.2L121.4,26.2z M122.7,19.1L122.7,19.1c0.1,0,0.1,0.1,0.1,0.1c0,0.1-0.1,0.1-0.1,0.1
	c-0.1,0-0.1-0.1-0.1-0.1L122.7,19.1L122.7,19.1z M122.4,19.4L122.4,19.4c0,0.1-0.1,0.1-0.1,0.1s-0.1-0.1,0-0.2
	c0-0.1,0.1-0.1,0.1-0.1C122.4,19.2,122.4,19.3,122.4,19.4L122.4,19.4z M122.9,25L122.9,25v1.7h-0.3V25l0,0c0-0.1,0.1-0.1,0.1-0.1
	C122.8,24.8,122.9,24.9,122.9,25C122.9,24.9,122.9,24.9,122.9,25L122.9,25z M122.6,22.9L122.6,22.9c0-0.1,0.1-0.1,0.1-0.1
	c0.1,0,0.1,0.1,0.1,0.1l0,0v0.8h-0.2V22.9L122.6,22.9L122.6,22.9z M122.9,20.9L122.9,20.9v0.5h-0.3v-0.5l0,0c0-0.1,0.1-0.1,0.2-0.1
	C122.8,20.8,122.9,20.8,122.9,20.9L122.9,20.9L122.9,20.9z M123.3,19.4L123.3,19.4c0,0-0.1,0-0.1-0.1s0-0.1,0-0.2c0,0,0.1,0,0.1,0.1
	S123.3,19.4,123.3,19.4L123.3,19.4z M114.7,26.1L114.7,26.1h-7.1v-0.6h7.1V26.1L114.7,26.1z M114.7,25.1L114.7,25.1h-7.1v-0.6h7.1
	V25.1L114.7,25.1z M114.7,24L114.7,24h-7.1v-0.6h7.1V24L114.7,24z M114.7,23L114.7,23h-7.1v-0.6h7.1V23L114.7,23z M93.1,24.6
	L93.1,24.6L92.7,25h-1.2l-0.4-0.4H93.1L93.1,24.6z M90.1,24.6L90.1,24.6L89.7,25h-1.2l-0.4-0.4H90.1L90.1,24.6z M87.2,24.6
	L87.2,24.6L86.8,25h-1.2l-0.4-0.4H87.2L87.2,24.6z M84.3,24.6L84.3,24.6L83.9,25h-1.2l-0.4-0.4H84.3L84.3,24.6z M94.7,27.5
	L94.7,27.5H82.1v-1.6h12.6V27.5L94.7,27.5z M94.7,25L94.7,25h-0.5l-0.3-0.4h0.8V25L94.7,25z M99.4,27.5L99.4,27.5H95v-0.4h4.3
	L99.4,27.5L99.4,27.5z M103.2,26.8L103.2,26.8L95,26.4v-0.6l8.2,0.4V26.8L103.2,26.8z M103.2,25.6L103.2,25.6L95,25.2v-0.6l8.2,0.4
	V25.6L103.2,25.6z M22.5,15.9L22.5,15.9h0.4v0.4h-0.4V15.9L22.5,15.9z M21,15.9L21,15.9h0.4v0.4H21V15.9L21,15.9z M19.5,15.9
	L19.5,15.9h0.4v0.4h-0.4V15.9L19.5,15.9z M19.8,21.8L19.8,21.8h-0.4v-0.4h0.4V21.8L19.8,21.8z M19.8,20.8L19.8,20.8h-0.4v-2.9h0.4
	V20.8L19.8,20.8z M20.4,21.8L20.4,21.8H20v-0.4h0.4V21.8L20.4,21.8z M20.4,20.8L20.4,20.8H20v-2.9h0.4V20.8L20.4,20.8z M20.4,17.5
	L20.4,17.5h-0.9v-0.7h0.9V17.5L20.4,17.5z M20.4,16.3L20.4,16.3H20v-0.4h0.4V16.3L20.4,16.3z M21.3,21.8L21.3,21.8H21v-0.4h0.4v0.4
	H21.3z M21.3,20.8L21.3,20.8H21v-2.9h0.4v2.9H21.3z M21.9,21.8L21.9,21.8h-0.4v-0.4h0.4V21.8L21.9,21.8z M21.9,20.8L21.9,20.8h-0.4
	v-2.9h0.4V20.8L21.9,20.8z M21.9,17.5L21.9,17.5H21v-0.7h0.9V17.5L21.9,17.5z M21.9,16.3L21.9,16.3h-0.4v-0.4h0.4V16.3L21.9,16.3z
	 M22.8,21.8L22.8,21.8h-0.4v-0.4h0.4V21.8L22.8,21.8z M22.8,20.8L22.8,20.8h-0.4v-2.9h0.4V20.8L22.8,20.8z M23.4,21.8L23.4,21.8H23
	v-0.4h0.4V21.8L23.4,21.8z M23.4,20.8L23.4,20.8H23v-2.9h0.4V20.8L23.4,20.8z M23.4,17.5L23.4,17.5h-0.9v-0.7h0.9V17.5L23.4,17.5z
	 M23.4,16.3L23.4,16.3H23v-0.4h0.4V16.3L23.4,16.3z M46.8,26.4h-3v-2c0,0-0.1-1.4,1.6-1.4c1.7,0,1.5,1.6,1.5,1.6L46.8,26.4
	L46.8,26.4z M40.1,26.7c0.9,0,0.9,0.7,0.9,0.7h-1.8C39.1,27.4,39.1,26.7,40.1,26.7L40.1,26.7z M33.1,26.7c0.9,0,0.9,0.7,0.9,0.7
	h-1.8C32.2,27.4,32.2,26.7,33.1,26.7L33.1,26.7z M30.8,26.7c0.9,0,0.9,0.7,0.9,0.7h-1.8C29.9,27.4,29.9,26.7,30.8,26.7L30.8,26.7z
	 M54,26.4h-3v-2c0,0-0.1-1.4,1.6-1.4c1.7,0,1.5,1.6,1.5,1.6L54,26.4L54,26.4z M37.8,26.7c0.9,0,0.9,0.7,0.9,0.7h-1.8
	C36.8,27.4,36.8,26.7,37.8,26.7L37.8,26.7z M28.5,26.7c0.9,0,0.9,0.7,0.9,0.7h-1.8C27.5,27.4,27.5,26.7,28.5,26.7L28.5,26.7z
	 M35.5,26.7c0.9,0,0.9,0.7,0.9,0.7h-1.8C34.5,27.4,34.5,26.7,35.5,26.7L35.5,26.7z M68.3,26.4h-3v-2c0,0-0.1-1.4,1.6-1.4
	s1.5,1.6,1.5,1.6L68.3,26.4L68.3,26.4z M59.7,23c1.7,0,1.5,1.6,1.5,1.6v1.8h-3v-2C58.1,24.5,58,23,59.7,23L59.7,23z M48.9,23
	c1.7,0,1.5,1.6,1.5,1.6v1.8h-3v-2C47.3,24.5,47.2,23,48.9,23L48.9,23z M57.5,26.4h-3v-2c0,0-0.1-1.4,1.6-1.4c1.7,0,1.5,1.6,1.5,1.6
	L57.5,26.4L57.5,26.4z M76.7,26.7c0.9,0,0.9,0.7,0.9,0.7h-1.8C75.8,27.4,75.8,26.7,76.7,26.7L76.7,26.7z M74.4,26.7
	c0.9,0,0.9,0.7,0.9,0.7h-1.8C73.5,27.4,73.5,26.7,74.4,26.7L74.4,26.7z M64.7,26.4h-3v-2c0,0-0.1-1.4,1.6-1.4s1.5,1.6,1.5,1.6
	L64.7,26.4L64.7,26.4z M72.1,26.7c0.9,0,0.9,0.7,0.9,0.7h-1.8C71.1,27.4,71.1,26.7,72.1,26.7L72.1,26.7z M13.6,23.7v-0.3h-0.2v-0.1
	h1.1v0.5l0,0h-0.9V23.7z M10.4,23.4h-0.2v-0.2h0.6v0.2l0,0H10.4L10.4,23.4z M10.7,22.9L10.7,22.9H8.8v-0.5h1.9V22.9L10.7,22.9z
	 M10.7,22L10.7,22H8.8v-0.5h1.9V22L10.7,22z M10.7,21.2L10.7,21.2H8.8v-0.5h1.9V21.2L10.7,21.2z M10.7,20.4L10.7,20.4H8.8v-0.5h1.9
	V20.4L10.7,20.4z M10.7,19.6L10.7,19.6H8.8v-0.5h1.9V19.6L10.7,19.6z M10.7,18.7L10.7,18.7H8.8v-0.5h1.9V18.7L10.7,18.7z M10.7,17.9
	L10.7,17.9H8.8v-0.5h1.9V17.9L10.7,17.9z M15.4,22.9L15.4,22.9h-1.9v-0.5h1.9V22.9L15.4,22.9z M15.4,22L15.4,22h-1.9v-0.5h1.9V22
	L15.4,22z M15.4,21.2L15.4,21.2h-1.9v-0.5h1.9V21.2L15.4,21.2z M15.4,20.4L15.4,20.4h-1.9v-0.5h1.9V20.4L15.4,20.4z M15.4,19.6
	L15.4,19.6h-1.9v-0.5h1.9V19.6L15.4,19.6z M15.4,18.7L15.4,18.7h-1.9v-0.5h1.9V18.7L15.4,18.7z M15.4,17.9L15.4,17.9h-1.9v-0.5h1.9
	V17.9L15.4,17.9z M15.4,17.1L15.4,17.1h-1.9v-0.5h1.9V17.1L15.4,17.1z M24.9,24.6L24.9,24.6L24.5,25h-1.2l-0.4-0.4H24.9L24.9,24.6z
	 M22,24.6L22,24.6L21.5,25h-1.2L20,24.6H22L22,24.6z M19,24.6L19,24.6L18.6,25h-1.2L17,24.6H19L19,24.6z M16.1,24.6L16.1,24.6
	L15.7,25h-1.2l-0.4-0.4H16.1L16.1,24.6z M12.5,24.6L12.5,24.6h0.8L13,25h-0.5V24.6L12.5,24.6z M12.1,27.5L12.1,27.5H7.8v-0.4h4.3
	V27.5L12.1,27.5z M12.1,26.4L12.1,26.4l-8.2,0.4v-0.6l8.2-0.4V26.4L12.1,26.4z M12.1,25.2L12.1,25.2l-8.2,0.4V25l8.2-0.4V25.2
	L12.1,25.2z M25,26.2L25,26.2h-5.7v1.3H19v-1.3h-4.5v1.3h-0.4v-1.3h-1.6v-0.3H25V26.2L25,26.2z M26.6,10.1L26.6,10.1h0.3v0.5h-0.3
	V10.1L26.6,10.1z M26.6,11.3L26.6,11.3h0.3v0.5h-0.3V11.3L26.6,11.3z M26.9,20.2L26.9,20.2h-0.3v-4.3h0.3V20.2L26.9,20.2z
	 M26.9,15.2L26.9,15.2h-0.3v-1.6h0.3V15.2L26.9,15.2z M26.9,12.9L26.9,12.9h-0.3h-0.1v-0.5h0.1h0.3h0.6v0.5H26.9L26.9,12.9z
	 M27.6,20.2L27.6,20.2h-0.3v-4.3h0.3V20.2L27.6,20.2z M27.6,15.2L27.6,15.2h-0.3v-1.6h0.3V15.2L27.6,15.2z M27.6,11.8L27.6,11.8
	h-0.3v-0.5h0.3V11.8L27.6,11.8z M27.6,10.6L27.6,10.6h-0.3v-0.5h0.3V10.6L27.6,10.6z M28.5,20.2L28.5,20.2h-0.3v-4.3h0.3V20.2
	L28.5,20.2z M28.5,15.2L28.5,15.2h-0.3v-1.6h0.3V15.2L28.5,15.2z M28.5,12.9L28.5,12.9h-0.3v-0.5h0.3V12.9L28.5,12.9z M28.5,11.8
	L28.5,11.8h-0.3v-0.5h0.3V11.8L28.5,11.8z M28.5,10.6L28.5,10.6h-0.3v-0.5h0.3V10.6L28.5,10.6z M29.3,20.2L29.3,20.2H29v-4.3h0.3
	V20.2L29.3,20.2z M29.3,15.2L29.3,15.2H29v-1.6h0.3V15.2L29.3,15.2z M29.3,12.9L29.3,12.9H29v-0.5h0.3V12.9L29.3,12.9z M29.3,11.8
	L29.3,11.8H29v-0.5h0.3V11.8L29.3,11.8z M29.3,10.6L29.3,10.6H29v-0.5h0.3V10.6L29.3,10.6z M30,20.2L30,20.2h-0.3v-4.3H30V20.2
	L30,20.2z M30,15.2L30,15.2h-0.3v-1.6H30V15.2L30,15.2z M30,12.9L30,12.9h-0.3v-0.5H30V12.9L30,12.9z M30,11.8L30,11.8h-0.3v-0.5H30
	V11.8L30,11.8z M30,10.6L30,10.6h-0.3v-0.5H30V10.6L30,10.6z M30.7,10.1L30.7,10.1H31v0.5h-0.3V10.1L30.7,10.1z M30.7,11.3
	L30.7,11.3H31v0.5h-0.3V11.3L30.7,11.3z M31,20.2L31,20.2h-0.3v-4.3H31V20.2L31,20.2z M31,15.2L31,15.2h-0.3v-1.6H31V15.2L31,15.2z
	 M31.7,20.2L31.7,20.2h-0.3v-4.3h0.3V20.2L31.7,20.2z M31.7,15.2L31.7,15.2h-0.3v-1.6h0.3V15.2L31.7,15.2z M31.7,12.9L31.7,12.9
	h-0.2h-0.1h-0.6v-0.5h0.6h0.1h0.2V12.9L31.7,12.9z M31.7,11.8L31.7,11.8h-0.3v-0.5h0.3V11.8L31.7,11.8z M31.7,10.6L31.7,10.6h-0.3
	v-0.5h0.3V10.6L31.7,10.6z M91.7,20.2L91.7,20.2H91v-0.8h0.7V20.2L91.7,20.2z M91.7,18.4L91.7,18.4H91v-0.5h0.7V18.4L91.7,18.4z
	 M91.7,17.3L91.7,17.3H91v-0.5h0.7V17.3L91.7,17.3z M91.7,16.2L91.7,16.2H91v-0.5h0.7V16.2L91.7,16.2z M91.7,15.2L91.7,15.2H91v-0.5
	h0.7V15.2L91.7,15.2z M91.7,14.1L91.7,14.1H91v-0.5h0.7V14.1L91.7,14.1z M91.7,13L91.7,13H91v-0.5h0.7V13L91.7,13z M91.7,11.9
	L91.7,11.9H91v-2h0.7V11.9L91.7,11.9z M94.9,21L94.9,21h-2.1v-1.6h2.1V21L94.9,21z M94.9,18.4L94.9,18.4h-2.1v-0.5h2.1V18.4
	L94.9,18.4z M94.9,17.3L94.9,17.3h-2.1v-0.5h2.1V17.3L94.9,17.3z M94.9,16.2L94.9,16.2h-2.1v-0.5h2.1V16.2L94.9,16.2z M94.9,15.1
	L94.9,15.1h-2.1v-0.5h2.1V15.1L94.9,15.1z M94.9,14.1L94.9,14.1h-2.1v-0.5h2.1V14.1L94.9,14.1z M94.9,13L94.9,13h-2.1v-0.5h2.1V13
	L94.9,13z M94.9,11.9L94.9,11.9h-2.1v-1.6h2.1V11.9L94.9,11.9z M97.5,21L97.5,21h-2.1v-1.6h2.1V21L97.5,21z M97.5,18.4L97.5,18.4
	h-2.1v-0.5h2.1V18.4L97.5,18.4z M97.5,17.3L97.5,17.3h-2.1v-0.5h2.1V17.3L97.5,17.3z M97.5,16.2L97.5,16.2h-2.1v-0.5h2.1V16.2
	L97.5,16.2z M97.5,15.1L97.5,15.1h-2.1v-0.5h2.1V15.1L97.5,15.1z M97.5,14.1L97.5,14.1h-2.1v-0.5h2.1V14.1L97.5,14.1z M97.5,13
	L97.5,13h-2.1v-0.5h2.1V13L97.5,13z M97.5,11.9L97.5,11.9h-2.1v-1.6h2.1V11.9L97.5,11.9z M100.2,21L100.2,21h-2.1v-1.6h2.1V21
	L100.2,21z M100.2,18.4L100.2,18.4h-2.1v-0.5h2.1V18.4L100.2,18.4z M100.2,17.3L100.2,17.3h-2.1v-0.5h2.1V17.3L100.2,17.3z
	 M100.2,16.2L100.2,16.2h-2.1v-0.5h2.1V16.2L100.2,16.2z M100.2,15.1L100.2,15.1h-2.1v-0.5h2.1V15.1L100.2,15.1z M100.2,14.1
	L100.2,14.1h-2.1v-0.5h2.1V14.1L100.2,14.1z M100.2,13L100.2,13h-2.1v-0.5h2.1V13L100.2,13z M100.2,11.9L100.2,11.9h-2.1v-1.6h2.1
	V11.9L100.2,11.9z M101.5,20.2L101.5,20.2h-0.7v-0.8h0.7V20.2L101.5,20.2z M101.5,18.4L101.5,18.4h-0.7v-0.5h0.7V18.4L101.5,18.4z
	 M101.5,17.3L101.5,17.3h-0.7v-0.5h0.7V17.3L101.5,17.3z M101.5,16.2L101.5,16.2h-0.7v-0.5h0.7V16.2L101.5,16.2z M101.5,15.2
	L101.5,15.2h-0.7v-0.5h0.7V15.2L101.5,15.2z M101.5,14.1L101.5,14.1h-0.7v-0.5h0.7V14.1L101.5,14.1z M101.5,13L101.5,13h-0.7v-0.5
	h0.7V13L101.5,13z M101.5,11.9L101.5,11.9h-0.7v-2h0.7V11.9z"/>
<line fill="none" x1="0.1" y1="27.6" x2="124.6" y2="27.6"/>
<g>
	<path fill="#6CBABF" d="M4.9,49.1L7.4,58H4.8l-0.5-1.9H1.6L1,58H0l2.6-8.9H4.9z M1.8,55.2H4l-1-3.9L1.8,55.2z"/>
	<path fill="#6CBABF" d="M8.1,58v-8.9h3.7c2.6,0,3.9,1.5,3.9,4.5S14.3,58,11.6,58H8.1z M10.6,57.3h0.7c0.6,0,1-0.3,1.3-0.8
		S13,55,13,53.6s-0.1-2.4-0.4-2.9c-0.2-0.5-0.7-0.8-1.3-0.8h-0.7V57.3z"/>
	<path fill="#6CBABF" d="M23.2,49.1L20.6,58h-2.3L16,49.1h2.6l1.8,6.7l1.9-6.7H23.2z"/>
	<path fill="#6CBABF" d="M26.5,49.1V58h-2.6v-8.9H26.5z"/>
	<path fill="#6CBABF" d="M33.8,51.6l-1.2,0.2c0.1-0.2,0.1-0.4,0.1-0.6c0-1-0.6-1.5-1.9-1.5c-1,0-1.5,0.4-1.5,1.1
		c0,0.5,0.6,1,1.7,1.4c2.1,0.7,3.2,1.8,3.2,3.3c0,0.8-0.3,1.5-0.9,2c-0.6,0.5-1.4,0.8-2.4,0.8c-2.2,0-3.3-0.9-3.3-2.6
		c0-0.1,0-0.3,0-0.5l1.2-0.3c-0.1,0.4-0.1,0.7-0.1,1c0,1.1,0.6,1.7,1.9,1.7c1,0,1.5-0.4,1.5-1.2c0-0.6-0.6-1.1-1.8-1.6
		c-1.7-0.6-2.6-1.7-2.6-3.1c0-0.8,0.3-1.4,0.9-1.9s1.4-0.7,2.3-0.7C32.8,49,33.8,49.8,33.8,51.6z"/>
	<path fill="#6CBABF" d="M39,49c2.6,0,3.9,1.5,3.9,4.6s-1.3,4.6-3.9,4.6c-2.6,0-3.9-1.6-3.9-4.7C34.9,50.5,36.3,49,39,49z
		 M38.9,49.7c-0.5,0-0.8,0.3-1,0.8s-0.3,1.6-0.3,3.1s0.1,2.5,0.3,3.1c0.2,0.5,0.5,0.8,1,0.8s0.8-0.3,1-0.8s0.3-1.6,0.3-3.1
		s-0.1-2.5-0.3-3.1S39.4,49.7,38.9,49.7z"/>
	<path fill="#6CBABF" d="M44,58v-8.9h3.8c1,0,1.8,0.2,2.4,0.6c0.6,0.4,0.9,1,0.9,1.7c0,1.1-0.6,1.8-1.9,2.1c0.7,0.2,1.1,0.5,1.3,0.8
		s0.3,0.9,0.4,1.7c0.1,1,0.2,1.7,0.5,2h-2.8c-0.2-0.4-0.3-0.9-0.3-1.5V56v-0.7c0-1-0.4-1.5-1.2-1.5h-0.4V58H44z M46.5,53H47
		c1,0,1.5-0.5,1.5-1.5S48,50,47,50h-0.5V53z"/>
	<path fill="#6CBABF" d="M62.2,51.6L61,51.8c0.1-0.2,0.1-0.4,0.1-0.6c0-1-0.6-1.5-1.9-1.5c-1,0-1.5,0.4-1.5,1.1c0,0.5,0.6,1,1.7,1.4
		c2.1,0.7,3.2,1.8,3.2,3.3c0,0.8-0.3,1.5-0.9,2c-0.6,0.5-1.4,0.8-2.4,0.8c-2.2,0-3.3-0.9-3.3-2.6c0-0.1,0-0.3,0-0.5l1.2-0.3
		c-0.1,0.4-0.1,0.7-0.1,1c0,1.1,0.6,1.7,1.9,1.7c1,0,1.5-0.4,1.5-1.2c0-0.6-0.6-1.1-1.8-1.6c-1.7-0.6-2.6-1.7-2.6-3.1
		c0-0.8,0.3-1.4,0.9-1.9c0.6-0.5,1.4-0.7,2.3-0.7C61.2,49,62.2,49.8,62.2,51.6z"/>
	<path fill="#6CBABF" d="M69.9,49.1l-2.2,5.6V58h-2.6v-3.3l-2.4-5.6h2.7l1.8,4.3l1.6-4.3C68.8,49.1,69.9,49.1,69.9,49.1z"/>
	<path fill="#6CBABF" d="M78.7,49.1V58h-2.5v-6.2L74.5,58h-1.4l-1.8-6.1V58h-0.9v-8.9H73l1.5,5.4l1.5-5.4H78.7z"/>
	<path fill="#6CBABF" d="M80.3,58v-8.9h3.8c2.2,0,3.3,0.9,3.3,2.6c0,1.8-1.2,2.6-3.6,2.6h-0.9V58H80.3z M82.8,53.5h0.6
		c0.9,0,1.4-0.6,1.4-1.9c0-1.2-0.5-1.7-1.4-1.7h-0.6V53.5z"/>
	<path fill="#6CBABF" d="M91.9,49c2.6,0,3.9,1.5,3.9,4.6s-1.3,4.6-3.9,4.6S88,56.6,88,53.5C87.8,50.5,89.2,49,91.9,49z M91.8,49.7
		c-0.5,0-0.8,0.3-1,0.8s-0.3,1.6-0.3,3.1s0.1,2.5,0.3,3.1c0.2,0.5,0.5,0.8,1,0.8s0.8-0.3,1-0.8s0.3-1.6,0.3-3.1s-0.1-2.5-0.3-3.1
		S92.3,49.7,91.8,49.7z"/>
	<path fill="#6CBABF" d="M102.7,51.6l-1.2,0.2c0.1-0.2,0.1-0.4,0.1-0.6c0-1-0.6-1.5-1.9-1.5c-1,0-1.5,0.4-1.5,1.1
		c0,0.5,0.6,1,1.7,1.4c2.1,0.7,3.2,1.8,3.2,3.3c0,0.8-0.3,1.5-0.9,2s-1.4,0.8-2.4,0.8c-2.2,0-3.3-0.9-3.3-2.6c0-0.1,0-0.3,0-0.5
		l1.2-0.3c-0.1,0.4-0.1,0.7-0.1,1c0,1.1,0.6,1.7,1.9,1.7c1,0,1.5-0.4,1.5-1.2c0-0.6-0.6-1.1-1.8-1.6c-1.7-0.6-2.6-1.7-2.6-3.1
		c0-0.8,0.3-1.4,0.9-1.9s1.4-0.7,2.3-0.7C101.7,49,102.7,49.8,102.7,51.6z"/>
	<path fill="#6CBABF" d="M106.8,49.1V58h-2.6v-8.9H106.8z"/>
	<path fill="#6CBABF" d="M115,49.1v6c0,2-1.1,3.1-3.4,3.1s-3.4-1-3.4-3.1v-6h2.6v6c0,0.8,0.1,1.3,0.3,1.6c0.2,0.3,0.6,0.4,1.2,0.4
		c1.2,0,1.8-0.7,1.8-2.1v-6L115,49.1L115,49.1z"/>
	<path fill="#6CBABF" d="M124.6,49.1V58h-2.5v-6.2l-1.7,6.2H119l-1.8-6.1V58h-0.9v-8.9h2.6l1.5,5.4l1.5-5.4H124.6z"/>
</g>
<path fill="#6CBABF" d="M9.9,29.7c0.5,0,1,0,1.5,0c0.8,0,2.3,0,3.8,0.8c0.6,0.3,1,0.7,1.1,0.9c1.1,1.1,1.1,2.1,1.1,2.6
	c0,0.2,0,2.3-1.7,3.5c-1.1,0.7-2.5,0.8-2.7,0.8l1.8,7.3H10l-1.3-7.1h-2L5,45.6H0.3l3.8-15.8L9.9,29.7L9.9,29.7z M7,37.1h2.2
	c0.8,0,1.3-0.1,1.9-0.5c0.2-0.1,0.3-0.2,0.5-0.4c0.8-0.8,1.1-2.7,1.1-3.6c0-0.2,0-0.4,0-0.5c0-0.3-0.2-0.9-1-1.2
	c-0.6-0.2-1.6-0.2-3.1-0.1L7,37.1z"/>
<path fill="#6CBABF" d="M22.2,40.1c-0.3,1.4-0.5,2.3-0.5,2.9c0,0.4,0.1,0.8,0.5,1.1c0.1,0.1,0.2,0.1,0.2,0.2
	c0.4,0.3,0.9,0.4,1.8,0.4c0.3,0,1.2,0,2.1-0.4c0.2-0.1,1.1-0.4,1.7-1.3c0.4-0.6,0.5-1.3,0.7-1.9l1.2,0.6c0,0.3-0.2,1.3-1.1,2.2
	c-0.2,0.2-0.3,0.3-0.5,0.5c-0.1,0.1-0.5,0.4-0.8,0.6c-0.7,0.4-2,0.8-3.7,0.8c-1.3,0-2.9-0.2-4.2-1.1c-0.1,0-0.5-0.4-0.8-0.7
	c-0.7-0.7-1.3-1.9-1.3-3.6c0-0.6,0-1.9,0.9-3.5c0.4-0.7,0.6-0.9,0.9-1.2c0.3-0.4,0.7-0.8,1.5-1.3c0.6-0.4,1.5-0.9,2.9-1.1
	c0.5-0.1,0.9-0.1,1.3-0.1c0.3,0,1.9,0,3.2,0.8c0.6,0.3,0.9,0.7,1.1,0.9c0.4,0.4,0.9,1.4,0.9,2.7c0,1.1-0.4,1.9-0.5,2.4L22.2,40.1
	L22.2,40.1z M25.9,38.8c0.1-0.4,0.2-0.8,0.4-1.3c0.1-0.4,0.2-0.7,0.2-1.1c0.1-0.4,0.2-0.7,0.2-1.1c0-0.5-0.2-0.9-0.5-1
	c-0.2-0.2-0.7-0.2-0.9-0.2c-0.1,0-0.3,0-0.4,0c-0.2,0-0.7,0.2-1.1,0.9s-0.7,2-1.2,3.8C22.6,38.8,25.9,38.8,25.9,38.8z"/>
<path fill="#6CBABF" d="M44.4,45.4c-0.8,0.2-1.4,0.4-2.2,0.4c-0.2,0-1.3,0-2.1-0.4c-0.2-0.1-0.4-0.2-0.6-0.4
	c-0.4-0.4-0.5-0.7-0.5-1.1c-0.2,0.3-0.4,0.5-0.6,0.7c-1,1-1.9,1.2-2.2,1.3C36,45.9,35.6,46,35,46c-0.2,0-1.7,0-2.8-0.8
	c-0.3-0.2-0.5-0.4-0.6-0.5c-0.4-0.4-0.7-1-0.7-2c0-0.8,0.3-1.8,1.1-2.6c0.3-0.2,0.8-0.7,1.6-1c0.9-0.4,2.6-0.6,3.5-0.7
	c0.2,0,1.2-0.1,2-0.4c0.3-0.1,0.7-0.2,0.9-0.6c0.3-0.4,0.6-1.3,0.6-1.7c0-1.1-1.7-1.2-2.3-1.2c-0.1,0-1.3,0-2.1,0.4
	c-0.2,0.1-0.4,0.3-0.6,0.4c-0.7,0.7-0.9,1.5-1.1,2.1l-1.7-0.8c0-0.4,0.1-1.3,1.3-2.1c0.9-0.6,2.1-1,4.1-1c2.5,0,4.4,0.6,5.4,1.6
	c0.1,0.1,0.2,0.2,0.3,0.4c0.2,0.2,0.5,0.8,0.5,1.5c0,0.5-0.1,0.9-0.2,1.3c-0.4,1.3-0.7,2.6-1,3.7c-0.3,1-0.5,1.5-0.5,1.8
	c0,0.1,0,0.3,0.2,0.4c0.3,0.3,0.6,0.3,0.9,0.3c0.5,0,0.7,0,0.9-0.1L44.4,45.4z M38.2,39.2c-1.3,0.2-2.1,0.4-2.7,2
	c0,0.1-0.5,1.5-0.5,2.4c0,0.1,0,0.4,0.1,0.5c0.1,0.2,0.4,0.5,0.9,0.5s1.6-0.2,2.5-1.7c0.5-0.8,0.9-2.1,1.3-3.9
	C39.2,39.1,38.7,39.2,38.2,39.2z"/>
<path fill="#6CBABF" d="M49.1,45.6h-4.2L49.3,30l4.3-0.5L49.1,45.6z"/>
<path fill="#6CBABF" d="M76.1,30.6l-4.1,15h-2.8l-2.1-8.2L65,45.6h-2.8l-3.9-14.9h4.4l2.3,9.1l2.3-9.1h2.6l2.2,9.1l2.4-9.1
	L76.1,30.6L76.1,30.6z"/>
<path fill="#6CBABF" d="M85,41.5l1.6,0.5c-0.2,2.5-1.7,3.8-4.5,3.8c-3.7,0-5.5-1.8-5.5-5.5c0-1.8,0.5-3.2,1.5-4.4
	c1-1.1,2.2-1.7,3.8-1.7c3.2,0,4.8,2.1,4.8,6.2h-5.8c0,2.9,0.7,4.3,2.2,4.3c1.4,0,2.1-0.8,2.1-2.5C85,42.1,85,41.8,85,41.5z
	 M80.7,39.2h2.4c0-2.6-0.4-3.9-1.2-3.9c-0.7,0-1.1,1-1.2,2.9L80.7,39.2z"/>
<path fill="#6CBABF" d="M99.5,45.2c-1,0.4-1.9,0.6-2.9,0.6c-1.4,0-2.2-0.4-2.6-1.3c-0.7,0.9-1.6,1.3-2.9,1.3c-2.3,0-3.5-1.1-3.5-3.2
	c0-1.6,1.1-2.8,3.2-3.5c2-0.6,2.9-1.4,2.9-2.2c0-1.1-0.6-1.7-1.7-1.7c-1.3,0-2,0.5-2,1.6c0,0.3,0.1,0.8,0.3,1.4l-2-0.4
	c-0.1-0.3-0.1-0.7-0.1-1c0-1.8,1.6-2.6,4.8-2.6c3,0,4.6,0.8,4.6,2.5v6.7c0,0.7,0.2,1,0.7,1c0.1,0,0.3-0.1,0.6-0.2L99.5,45.2z
	 M93.8,38.9c-0.2,0.3-0.5,0.5-0.9,0.7c-0.8,0.5-1.2,1.3-1.2,2.4c0,1.5,0.3,2.2,0.9,2.2c0.8,0,1.3-0.7,1.3-2.2v-3.1H93.8z"/>
<path fill="#6CBABF" d="M104.2,30.4v15.2h-4v-15C101.3,30.6,102.6,30.6,104.2,30.4z"/>
<path fill="#6CBABF" d="M112.9,34.6v1.2h-1.8v7.8c0,0.5,0.2,0.7,0.5,0.7c0.2,0,0.4-0.2,0.4-0.5l1.1,0.1c-0.3,1.2-1.3,1.7-3,1.7
	c-2,0-3-0.9-3-2.6v-7.4h-1.3v-1.2h1.3v-2c1.4-0.4,2.7-0.9,4-1.6v3.6h1.8V34.6z"/>
<path fill="#6CBABF" d="M114.1,45.6v-15c1.2,0,2.5-0.1,4-0.2v6.1c0.9-1.5,2.1-2.2,3.7-2.2c1.9,0,2.8,0.8,2.8,2.5v8.9h-4v-8.4
	c0-0.6-0.2-1-0.6-1s-0.9,0.4-1.2,1.2c-0.4,0.8-0.6,1.7-0.6,2.6v5.5C118.2,45.6,114.1,45.6,114.1,45.6z"/>
<g>
	<path fill="#6CBABF" d="M122.9,29.3c0.5,0,0.9,0.2,1.2,0.5c0.3,0.3,0.5,0.7,0.5,1.2s-0.2,0.9-0.5,1.2c-0.3,0.3-0.7,0.5-1.2,0.5
		s-0.9-0.2-1.2-0.5c-0.3-0.3-0.5-0.7-0.5-1.2s0.2-0.9,0.5-1.2S122.4,29.3,122.9,29.3z M122.9,29.6c-0.4,0-0.8,0.1-1,0.4
		c-0.3,0.3-0.4,0.6-0.4,1.1c0,0.4,0.1,0.8,0.4,1.1c0.3,0.3,0.6,0.4,1,0.4s0.8-0.1,1-0.4s0.4-0.6,0.4-1.1c0-0.4-0.1-0.8-0.4-1.1
		C123.6,29.7,123.3,29.6,122.9,29.6z M122.1,32v-2h0.9c0.5,0,0.7,0.2,0.7,0.5c0,0.2-0.1,0.4-0.4,0.5c0.2,0.1,0.3,0.2,0.3,0.4v0.3
		c0,0.1,0,0.2,0.1,0.3H123c0-0.1-0.1-0.2-0.1-0.4v-0.3c0-0.2-0.1-0.3-0.3-0.3h-0.1v1H122.1z M122.7,30.9L122.7,30.9
		c0.3,0,0.4-0.1,0.4-0.3s-0.1-0.3-0.3-0.3h-0.1V30.9z"/>
</g>
</svg>
