<svg xmlns="http://www.w3.org/2000/svg" viewBox="0 0 124.6 46.9"><path fill="#6CBABF" d="M64.1 32.8c.4 0 .6.3.6.7s-.3.7-.7.7c-.4 0-.7-.3-.7-.7.1-.4.4-.7.8-.7zm0 .1c-.3 0-.5.2-.5.6 0 .3.2.6.5.6s.5-.2.5-.6c0-.3-.3-.6-.5-.6zm-.2 1l-.1-.7h.4l.1.1c0 .1-.1.1-.1.2.1 0 .1.1.1.2v.2h-.1v-.2c0-.1-.1-.1-.1-.1H64l-.1.3zm0-.4c.2 0 .2 0 .2-.1s0-.1-.2-.1h-.1l.1.2c-.1 0 0 0 0 0zM1.5 38.2s0 .1 0 0c-.1 0-.1 0 0 0-.1-.1 0-.3 0-.4 0-.1.1-.3.1-.4 0-.1.1-.2.2-.3.3-.2.7-.3 1.1-.5s.8-.2 1.2-.3c.7-.1 1.4-.2 2.2-.2 1 0 1.7.1 2.2.3s.8.6.8 1.1c0 .3-.1.5-.3.8s-.4.5-.7.8c-.3.2-.7.4-1.1.6-.4.2-.9.3-1.5.3-.1 0-.1 0-.1.1.2.4.5.9.9 1.6s.9 1.3 1.3 2c.3.4.6.7.9 1 .3.3.7.6 1.1.9.4.2.8.5 1.2.6s.9.2 1.3.2c.7 0 1.4-.2 2.1-.6h.1s0 .1-.1.1c-.4.2-.8.4-1.2.5s-.9.2-1.3.2c-.7 0-1.3-.1-1.8-.2s-1-.3-1.4-.6-.8-.7-1.2-1.1c-.4-.5-.8-1-1.2-1.6-.1-.2-.3-.4-.4-.7-.2-.3-.3-.6-.5-.9-.2-.3-.3-.6-.5-.9-.2-.3-.3-.5-.4-.7v-.1c.5 0 1 0 1.5-.1.4-.1.8-.2 1.2-.4.3-.2.6-.4.8-.8.2-.3.3-.7.3-1.1 0-.1 0-.3-.1-.5s-.2 0-.4-.1c-.1-.1-.3-.2-.5-.3s-.5-.1-.9-.1h-.3c-.1 0-.2.1-.3.2-.1.1-.3.4-.6.8s-.5.8-.8 1.3l-.9 1.5c-.3.5-.6 1.1-.9 1.6s-.5 1-.7 1.4-.4.7-.5 1h-1c-.2.1-.3.2-.4.3h-.1c1.1-1.6 2-3 2.8-4.3s1.4-2.4 2-3.4v-.2c0-.1 0 0-.1 0-.4 0-.7.1-1.1.2s-.7.3-1 .4c-.2.1-.4.3-.6.5-.1.1-.2.3-.4.5z"/><path fill="#6CBABF" d="M13.5 42c-.2.2-.4.5-.7.8s-.6.5-.9.7c-.3.2-.7.4-1 .5s-.7.2-1.1.2c-.6 0-.8-.2-.8-.8 0-.3.1-.7.3-1.1.2-.4.4-.7.7-1.1.3-.3.6-.6.9-.8s.6-.3.9-.3c.2 0 .3 0 .3.1s.1.1.1.2 0 .3-.1.5-.2.3-.4.5c-.2.1-.4.3-.7.4-.3.1-.6.1-1 .1-.1.2-.1.3-.2.6-.1.2-.1.5-.1.7 0 .5.2.7.7.7.3 0 .6-.1.9-.2.3-.1.6-.3.9-.5.3-.2.5-.4.8-.6 0-.2.2-.4.5-.6-.1-.1-.1-.1 0 0-.1-.1 0 0 0 0zm-1.9-1.4c0-.1-.1-.2-.2-.2s-.2 0-.4.1c-.1.1-.2.2-.4.3-.1.1-.2.3-.3.5s-.2.3-.3.5h.2c.3 0 .7-.1.9-.4.4-.2.5-.5.5-.8z"/><path fill="#6CBABF" d="M18.9 41.7c-.3.3-.6.7-.9 1s-.7.6-1 .9c-.3.3-.7.5-1 .7-.3.2-.6.2-.9.2-.2 0-.4 0-.5-.2-.1-.1-.1-.3-.1-.4s0-.4.1-.7.2-.6.5-.9c-.1.2-.3.4-.5.6l-.6.6c-.2.2-.4.3-.6.5-.2.1-.4.2-.6.2-.2 0-.4-.1-.4-.4 0-.3.1-.6.3-1s.5-.8.9-1.2c.3-.4.8-.7 1.3-1s1-.4 1.4-.4c0-.1.1-.2.2-.2s.1-.1.1-.1l.5-.1-.2.2c0 .1-.1.2-.2.3h.6s.1 0 .1.1h-.6c-.5 1-1 1.7-1.2 2.3s-.6 1-.6 1.3c0 .1 0 .2.1.3 0 .1.2.1.3.1.2 0 .4-.1.7-.2.3-.1.5-.3.8-.6.3-.2.6-.5.9-.9.4-.3.7-.6 1.1-1-.1 0 0-.1 0 0 0-.1 0-.1 0 0zm-2.8-1.4c-.4 0-.8.1-1.2.4-.4.3-.7.6-1 1s-.5.8-.7 1.2-.3.7-.3.8 0 .1.1.1.2 0 .3-.1.3-.2.5-.4.4-.3.6-.6c.2-.2.4-.4.5-.7l.6-.9c.3-.2.5-.5.6-.8z"/><path fill="#6CBABF" d="M26.5 32.4c0 .2-.1.4-.2.7s-.3.7-.6 1.1c-.2.4-.5.9-.9 1.4-.3.5-.8 1-1.2 1.4s-.9.9-1.5 1.4-1.1.8-1.7 1.2c-.1.2-.3.4-.4.8-.2.3-.4.7-.6 1-.2.4-.3.7-.5 1.1-.1.3-.2.6-.2.9 0 .4.2.6.5.6s.6-.1.9-.2l.9-.6c.3-.2.6-.5.8-.8.2-.3.5-.5.7-.7l.1-.1v.1c-.2.3-.5.5-.8.8s-.6.6-.9.8-.7.5-1 .6c-.4.2-.7.2-1.1.2-.3 0-.5-.1-.7-.2-.1-.1-.2-.3-.2-.5s.1-.5.3-.9c.2-.4.4-.8.7-1.3.2-.4.5-.9.8-1.3.2-.4.4-.7.6-.9.2-.3.4-.7.6-1.1.2-.4.4-.7.7-1.1.2-.4.4-.7.6-1s.4-.6.5-.9l.6-.9c.2-.3.5-.5.8-.8.5-.4.9-.7 1.3-.9s.6-.3.8-.3c.1 0 .2 0 .2.1.1.1.1.2.1.3zm-.8.5c0-.2-.1-.3-.2-.3h-.2c-.1 0-.2.1-.3.2-.1.1-.2.3-.4.5s-.4.5-.6.8c-.1.1-.2.3-.4.6-.2.2-.4.6-.7 1s-.6.9-1 1.5-.8 1.3-1.3 2.1c.7-.4 1.4-.9 2-1.5s1.2-1.2 1.6-1.8c.5-.6.8-1.2 1.1-1.8.2-.4.4-.9.4-1.3zm18 2.4l-.2.1c-.1 0-.3 0-.5.1s-.6.2-1 .5-1 .7-1.6 1.3-1.4 1.4-2.4 2.5c-.2.3-.5.6-.8 1s-.6.8-1 1.2c-.3.4-.6.8-.9 1.1-.3.3-.5.6-.6.9 0 0 0 .1-.1.1 0 0-.1.1-.2.1s-.3.1-.5.1c-.1 0-.3.1-.4.2-.1 0-.1 0 0-.2 0 0 .1-.2.1-.4s0-.5.1-.9c0-.3 0-.7.1-1.2v-3.7c0-.2 0-.2-.1-.2 0 0-.1 0-.2.1s-.3.2-.5.5c-.2.2-.5.5-.9.8L31 40.4c-.4.4-.8.8-1.3 1.2-.4.4-.8.8-1.2 1.3-.4.4-.8.8-1.1 1.2l-.1.1h-.1c-.2 0-.3 0-.5.1-.1 0-.3.1-.4.1s-.1 0 0-.2c.1-.1.2-.3.3-.6.1-.2.2-.5.3-.8 0-.1.1-.4.3-.7.1-.3.2-.7.4-1.1.1-.4.3-.8.4-1.3.1-.4.3-.9.4-1.3.1-.4.2-.7.3-1 .1-.3.1-.5.1-.5 0-.2-.1-.2-.3-.2s-.3 0-.5.1c-.2 0-.3.1-.4.1 0 0-.1 0-.1-.1 0 0 0-.1.1-.1.6-.1 1-.2 1.3-.3s.5-.1.7-.1c.1 0 .2-.1.3-.1h.1s.1 0 .1.1v.1s-.1.1-.1.2v.3c0 .1-.1.3-.2.4 0 .1-.1.3-.2.4-.3.8-.6 1.7-.9 2.7-.3.9-.6 1.8-.8 2.7v.2h.1c.5-.5 1.1-1 1.7-1.6l1.8-1.8c.6-.6 1.3-1.2 1.8-1.8s1.2-1.1 1.6-1.5h.1v.1s-.1.1-.2.1c0 .1-.1.1-.1.2 0 .2 0 .5-.1.8 0 .3 0 .6-.1 1v4.6s.1 0 .1-.1c.2-.3.4-.5.7-.9.2-.3.5-.6.8-.9.3-.3.5-.6.8-1 .3-.3.5-.6.7-.9.3-.3.6-.6.9-1 .3-.3.6-.7 1-1 .3-.3.6-.7 1-1l.8-.8c.2-.2.5-.4.7-.6.2-.2.5-.3.8-.3h.1c.1 0 .1 0 .2.1s.4.2.6.3zM42.5 42c-.2.2-.4.5-.7.8s-.6.5-.9.7c-.3.2-.7.4-1 .5s-.7.2-1.1.2c-.6 0-.8-.2-.8-.8 0-.3.1-.7.3-1.1.2-.4.4-.7.7-1.1.3-.3.6-.6.9-.8s.6-.3.9-.3c.2 0 .3 0 .3.1.1 0 .1.1.1.2s0 .3-.1.5-.2.3-.4.5c-.2.1-.4.3-.7.4-.3.1-.6.1-1 .1 0 .1-.1.3-.2.5s-.1.5-.1.7c0 .5.2.7.7.7.3 0 .6-.1.9-.2.3-.1.6-.3.9-.5.3-.2.5-.4.8-.6l.5-.5c0-.1 0-.1 0 0 0-.1 0 0 0 0zm-1.8-1.4c0-.1-.1-.2-.2-.2s-.2 0-.4.1c-.1.1-.2.2-.4.3-.1.1-.2.3-.3.5s-.2.3-.3.5h.2c.3 0 .7-.1.9-.4.3-.2.5-.5.5-.8z"/><path fill="#6CBABF" d="M48 41.7c-.3.3-.6.7-.9 1-.3.3-.7.6-1 .9-.3.3-.7.5-1 .7s-.6.2-.9.2c-.2 0-.4 0-.5-.2-.1-.1-.1-.3-.1-.4s0-.4.1-.7.2-.6.5-.9c-.1.2-.3.4-.5.6l-.6.6c-.2.2-.4.3-.6.5-.2.1-.4.2-.6.2-.2 0-.4-.1-.4-.4 0-.3.1-.6.3-1s.5-.8.9-1.2.8-.7 1.3-1 1-.4 1.4-.4c0-.1.1-.2.2-.2l.1-.1.5-.1-.2.2c-.1.1-.1.2-.2.3h.6s.1 0 .1.1h-.6c-.5 1-1 1.7-1.2 2.3s-.4 1-.4 1.3c0 .1 0 .2.1.3s.2.1.3.1c.2 0 .4-.1.7-.2.3-.1.5-.3.8-.6.3-.2.6-.5.9-.9.2-.3.5-.6.9-1-.1 0-.1-.1 0 0 0-.1 0-.1 0 0zm-2.8-1.4c-.4 0-.8.1-1.2.4-.4.3-.7.6-1 1s-.5.8-.7 1.2-.3.7-.3.8 0 .1.1.1.2 0 .3-.1.3-.2.5-.4.4-.3.6-.6c.2-.2.4-.4.5-.7l.6-.9c.3-.2.5-.5.6-.8z"/><path fill="#6CBABF" d="M55.6 32.4c0 .2-.1.4-.2.7-.1.3-.3.7-.6 1.1-.2.4-.5.9-.9 1.4-.3.5-.8 1-1.2 1.4s-.9.9-1.5 1.4c-.5.4-1.1.8-1.7 1.2l-.4.8c-.2.3-.4.7-.6 1-.2.4-.3.7-.5 1.1s-.2.6-.2.9c0 .4.2.6.5.6s.6-.1.9-.2l.9-.6c.3-.2.6-.5.8-.8s.5-.5.7-.7l.1-.1v.1c-.2.3-.5.5-.8.8s-.6.6-.9.8c-.3.2-.7.5-1 .6-.4.2-.7.2-1.1.2-.3 0-.5-.1-.7-.2-.1-.1-.2-.3-.2-.5s.1-.5.3-.9.4-.8.7-1.3c.2-.4.5-.9.8-1.3.2-.4.4-.7.6-.9.2-.3.4-.7.6-1.1.2-.4.4-.7.7-1.1.2-.4.4-.7.6-1 .2-.3.4-.6.5-.9l.6-.9c.2-.3.5-.5.8-.8.5-.4.9-.7 1.3-.9.4-.2.6-.3.8-.3.1 0 .2 0 .2.1s.1.2.1.3zm-.8.5c0-.2-.1-.3-.2-.3h-.2c-.1 0-.2.1-.3.2-.1.1-.2.3-.4.5s-.4.5-.6.8c-.1.1-.2.3-.4.6-.2.2-.4.6-.7 1s-.6.9-1 1.5-.8 1.3-1.3 2.1c.7-.4 1.4-.9 2-1.5s1.2-1.2 1.6-1.8c.5-.6.8-1.2 1.1-1.8.2-.4.4-.9.4-1.3z"/><path fill="#6CBABF" d="M55 37.6c-.1 0-.2.1-.3.1-.1.1-.2.1-.3.2-.3.4-.5.8-.8 1.2-.2.4-.5.8-.7 1.3h2.2v.1c0 .1 0 0 0 0h-2.3c-.3.6-.6 1.1-.8 1.5s-.3.8-.3 1.1c0 .4.2.6.6.6.2 0 .4 0 .7-.1.2-.1.5-.2.8-.4h.1v.1c-.4.3-.8.5-1.1.6s-.7.2-1.1.2c-.2 0-.4 0-.5-.2-.1-.1-.2-.3-.2-.6 0-.2.1-.6.3-1.1s.5-1 1-1.7h-.9s-.1 0-.1-.1.1-.2.2-.2h.9c.1-.2.2-.4.4-.6.1-.2.3-.4.4-.7.1-.2.3-.4.4-.6.1-.2.3-.4.4-.6.1 0 .3-.1.5-.2s.4-.2.6-.2c-.1.2-.1.3-.1.3zm11.2-5.3v.5c0-.1 0-.2-.1-.3 0-.1-.1-.3-.2-.4-.1-.1-.3-.2-.5-.4-.2-.1-.5-.1-.9-.1-.3 0-.6 0-1 .1-.3.1-.7.3-1.1.5-.4.2-.8.6-1.2 1.1s-.9 1.1-1.4 1.8-1.1 1.6-1.7 2.7c-.6 1-1.3 2.3-2 3.7.1-.1.2-.2.4-.3s.4-.3.6-.4c.2-.1.4-.3.6-.4.2-.1.4-.2.5-.2s.2 0 .2.1 0 .2-.2.3c-.1.1-.2.3-.4.6-.1.2-.3.5-.5.8-.1.3-.3.6-.4.8-.1.3-.2.5-.2.7s0 .3.1.4c.1.1.2.1.4.1.3 0 .7-.2 1.2-.5.5-.4 1.1-1 1.7-1.8h.1v.1c-.2.3-.5.6-.8 1l-.9.9c-.3.3-.6.5-1 .6-.3.2-.6.2-.9.2-.2 0-.4 0-.5-.2-.1-.1-.1-.3-.1-.5s.1-.4.2-.7c.1-.3.3-.6.4-.9.2-.3.3-.6.4-.8.1-.2.2-.4.2-.5v-.1c-.1 0-.3.1-.6.3s-.6.6-1.1 1.2c-.2.3-.3.6-.5.9-.2.3-.3.6-.5.9-.1.2-.2.3-.3.3H54c-.1 0-.1-.1-.1-.2V44c.5-.9 1-1.8 1.5-2.6s1-1.6 1.4-2.4l1.8-2.7c.6-.9 1.3-1.8 1.9-2.6.6-.8 1.3-1.4 2-1.9s1.3-.7 2-.7c.2 0 .3 0 .5.1.2 0 .3.1.5.2s.3.2.4.4c.2 0 .3.2.3.5zm27.2 4.5c0-.1 0-.1 0 0l1.7-4.7s0-.1.1-.1h1.2l.1.1 1.7 4.7v.2h-1.1c-.1 0-.1 0-.1-.1l-.3-1v-.1H95s-.1 0-.1.1l-.4 1c0 .1-.1.1-.1.1h-.8l-.2-.2zm2.8-2c.1 0 .1 0 0 0 .1-.1.1-.1 0 0l-.5-1.7-.6 1.6v.1s0 .1.1.1l1-.1zm4.3-2.9c.9 0 1.5.3 2 .7.4.4.7 1 .7 1.8s-.2 1.4-.7 1.8c-.5.4-1.1.7-2 .7h-1.6v-5h1.6zm-.5.9v3.3h.2c.6 0 1-.1 1.3-.4.3-.3.4-.7.4-1.3s-.1-1-.3-1.2c-.2-.2-.6-.4-1.1-.4h-.5c0-.1 0 0 0 0zm7.8-.9v.1l-1.6 4.7c0 .1-.1.1-.2.1h-.8c-.1 0-.2 0-.2-.1l-1.6-4.7v-.2h1.1c.1 0 .1 0 .1.1l1.1 3.4v-.1l1.1-3.4c0-.1.1-.1.1-.1l.9.2c-.1 0 0 0 0 0zm1.8 0c.1 0 .1 0 .1.1v4.8h-1V32c0-.1 0-.1.1-.1h.8zm3.5.9c-.1-.1-.3-.1-.6-.1s-.5 0-.6.1-.2.2-.2.4.2.4.5.5l1.1.3c.4.1.7.3.9.5.2.2.3.5.3.9 0 .3-.1.6-.2.8-.2.2-.4.4-.7.5-.3.1-.7.2-1.1.2-.5 0-.9-.1-1.2-.2-.4-.2-.6-.4-.8-.6V36s0-.1.1-.1l.5-.4h.1s.1 0 .1.1c.2.2.3.4.5.5s.4.1.7.1c.3 0 .5 0 .7-.1s.3-.2.3-.4c0-.1 0-.2-.1-.3s-.2-.2-.4-.2l-1-.3c-.4-.1-.7-.3-.9-.5-.2-.3-.3-.5-.3-.9 0-.3.1-.5.2-.8.2-.2.4-.4.7-.5.3-.1.6-.2 1-.2s.7.1 1 .2c.3.1.6.3.7.5v.2l-.6.4h-.1s-.1 0-.1-.1c-.3-.3-.4-.4-.5-.4zm3 3.8c-.3-.2-.6-.5-.8-.9-.2-.4-.3-.8-.3-1.4 0-.5.1-1 .3-1.4.2-.4.5-.7.8-.9.3-.2.8-.3 1.2-.3.5 0 .9.1 1.2.3.3.2.6.5.8.9.2.4.3.8.3 1.4 0 .5-.1 1-.3 1.4-.2.4-.5.7-.8.9s-.8.3-1.2.3c-.5 0-.9-.1-1.2-.3zm2-.9c.2-.3.3-.7.3-1.3s-.1-1.1-.3-1.3c-.2-.3-.4-.4-.8-.4s-.6.1-.8.4c-.2.3-.3.7-.3 1.3s.1 1 .3 1.3.4.4.8.4.6-.1.8-.4zm6.3 1.1c-.1.1-.1.1 0 0l-1.1.1c-.1 0-.1 0-.1-.1l-.7-1.9s0-.1-.1-.1H121.6v2.1h-1.1V32c0-.1 0-.1.1-.1h2.1c.6 0 1.1.1 1.4.4s.5.6.5 1c0 .3-.1.6-.3.8-.2.2-.4.4-.7.5v.1l.8 2.1c0-.1 0-.1 0 0zm-1.4-3c.1-.1.2-.3.2-.5s-.1-.4-.2-.5-.3-.2-.6-.2h-.9v1.3h.9c.3.1.5 0 .6-.1zm-45.2 6.6c-.2-.1-.4-.1-.7-.1-.3 0-.6.1-.7.2-.2.1-.3.3-.3.5 0 .3.2.5.6.6l1.2.4c.5.1.8.3 1 .6s.3.6.3 1-.1.7-.3 1c-.2.3-.5.5-.8.6-.4.1-.8.2-1.2.2-.5 0-1-.1-1.4-.3s-.7-.4-.9-.7v-.1s0-.1.1-.1l.6-.4h.1s.1 0 .1.1c.2.3.4.4.6.5s.5.2.8.2.6-.1.8-.2c.2-.1.3-.3.3-.5 0-.1 0-.3-.1-.4-.1-.1-.3-.2-.5-.3l-1.2-.3c-.4-.1-.8-.3-1-.6s-.4-.6-.4-1c0-.3.1-.6.3-.9.2-.3.4-.5.8-.6.3-.2.7-.2 1.2-.2.4 0 .8.1 1.2.2.4.1.6.3.8.6v.2l-.7.5h-.1s-.1 0-.1-.1c-.1-.4-.3-.5-.4-.6zm7.2-.9l-1.9 3.1s0 .1-.1.1V45c0 .1-.1.2-.2.2h-1.1V42.9s0-.1-.1-.1l-1.9-3.1v-.2h1.4l.1.1 1.2 2c0 .1.1.1.1.1l.1-.1 1.1-2c0-.1.1-.1.1-.1h1c.1-.1.2-.1.2 0zm.8 5.6v-5.6c0-.1 0-.1.1-.1h1.7l.1.1 1.2 3.3s0 .1.1.1l.1-.1 1.1-3.2c0-.1.1-.2.2-.2H92c.1 0 .1 0 .1.1v5.6h-1.2V41v.1L89.5 45c0 .1-.1.1-.2.1h-.6c-.1 0-.2 0-.2-.1l-1.4-3.9V41v4.1h-.9c-.3.1-.4.1-.4 0zm11.5-2.6c-.4.3-.9.5-1.5.5h-1.2c-.1 0-.1 0-.1.1v2c0 .1-.1.2-.2.2h-1.1v-5.6c0-.1 0-.1.1-.1h2.3c.4 0 .8.1 1.2.2.3.1.6.3.8.6.2.3.3.6.3 1s-.2.8-.6 1.1zm-1-1.9c-.2-.1-.4-.2-.7-.2h-1v1.5h1.1c.3 0 .5-.1.7-.2.2-.1.2-.3.2-.6-.1-.2-.2-.4-.3-.5zm3.5 4.3c-.4-.2-.7-.6-.9-1-.2-.4-.3-1-.3-1.6s.1-1.1.3-1.6c.2-.5.5-.8.9-1s.9-.4 1.4-.4 1 .1 1.4.4c.4.2.7.6.9 1 .2.5.3 1 .3 1.6s-.1 1.1-.3 1.6c-.2.4-.5.8-.9 1s-.9.4-1.4.4-1-.2-1.4-.4zm2.4-1.1c.2-.3.3-.8.3-1.5s-.1-1.2-.3-1.6c-.2-.3-.5-.5-.9-.5s-.7.2-.9.5c-.2.3-.3.8-.3 1.6 0 .7.1 1.2.3 1.5.2.3.5.5 1 .5.3 0 .6-.2.8-.5zm5.5-3.4c-.2-.1-.4-.1-.7-.1-.3 0-.6.1-.7.2-.2.1-.3.3-.3.5 0 .3.2.5.6.6l1.2.4c.5.1.8.3 1 .6s.3.6.3 1-.1.7-.3 1c-.2.3-.5.5-.8.6-.4.1-.8.2-1.2.2-.5 0-1-.1-1.4-.3s-.7-.4-.9-.7v-.1s0-.1.1-.1l.6-.4h.1s.1 0 .1.1c.2.3.4.4.6.5s.5.2.8.2.6-.1.8-.2c.2-.1.3-.3.3-.5 0-.1 0-.3-.1-.4-.1-.1-.3-.2-.5-.3l-1.2-.3c-.4-.1-.8-.3-1-.6s-.4-.6-.4-1c0-.3.1-.6.3-.9.2-.3.4-.5.8-.6.3-.2.7-.2 1.2-.2.4 0 .8.1 1.2.2.4.1.6.3.8.6v.2l-.7.5h-.1s-.1 0-.1-.1c-.1-.4-.2-.5-.4-.6zm3.7-1c.1 0 .1 0 0 0l.1 5.6v.1h-1.3v-5.6c0-.1 0-.1.1-.1h1.1zm5.2 5.3c-.4.3-1 .5-1.7.5-.8 0-1.4-.2-1.8-.6-.4-.4-.5-1-.5-1.8v-3.5h1.2c.1 0 .1 0 .1.1v3.5c0 .4.1.7.3.9s.4.3.8.3c.7 0 1.1-.4 1.1-1.2v-3.5c0-.1 0-.1.1-.1h.9c.1 0 .1 0 .1.1V43c0 .8-.2 1.4-.6 1.7zm1.7.4v-5.6c0-.1 0-.1.1-.1h1.7l.1.1 1.2 3.3s0 .1.1.1l.1-.1 1.1-3.2c0-.1.1-.2.2-.2h1.7c.1 0 .1 0 .1.1v5.6h-1.2V41v.1l-1.4 3.9c0 .1-.1.1-.2.1h-.6c-.1 0-.2 0-.2-.1l-1.4-3.9V41v4.1h-.9c-.5.1-.5.1-.5 0z"/><path fill="none" stroke="#6CBABF" stroke-width=".5" stroke-miterlimit="10" d="M70.5 31.1v14.5"/><path fill-rule="evenodd" clip-rule="evenodd" fill="#6CBABF" d="M100.6 9.5v-.8h-4.2v-1h-1.9v1H92v.9h-1.4V21h-1.1v.6h-.2v-9.8h-.9v-1.1h-3V8.5h-.3v2.2h-.4v1.1h-7.6V21h-1.6v-9.9h-5V9.8h-3.7v1.3h-.9v.4h-3v.5h-2.7v8.1h-1V15h-7.8v-1.2h-2V15h-2.1v3.2H47v.2h-.4v-.9h-.4v-.7h-1.4s0-.5-.3-.6v-3s.3-.3.3-.8c-.1-.5-.8-.8-.8-.8s.2-.2.1-.3c-.1-.1-.6-.3-.4-.7.1-.4.4-.9 0-1.3s-.4-.6-.4-.6-.3-3-2.4-4.3c0-.6-.5-.9-.5-.9V2.4s-.2-.6-.5-.8c0-.1-.1-.2-.2-.2h.1v-.3l.1-.2V.7v.2h.1V.7l-.1-.2h-.1V.4s0-.1-.1-.1h-.1v.1l-.2-.4.1.1s-.1.1 0 .2l.1.1v.8l.1.1c-.1 0-.2.1-.2.2-.3.2-.5.8-.5.8v1.1s-.5.5-.5.9c-2.1 1.3-2.4 4.3-2.4 4.3s0 .2-.4.6c-.4.4-.1.9 0 1.3s-.3.6-.4.7c-.1.1.1.3.1.3s-.7.3-.8.8.3.8.3.8v3c-.3.1-.3.6-.3.6h-1.4v.7h-.4v.9h-.4v-.2h-.1v-7.4h-.2v-1h-.2v-.5h-1.7V7.7h-1.5v-.4h-.5v.3h-3v.7H25v.5l-.5.7v.8l-.5.2v.8l-.5.3v1l.5.1v1h.4v10.1H24v-8h-.2v-.7h-5.3l-1.4.4v8.3h-.2v-.4h-.4v-7.1h-3.8v-.9l-1.6-.4v1.2h-.5v.2h-.3l-.3.2H8.6v-.5H8v.2l-1.2.3v6.1H5.4v1c-.8.1-1.6.7-1.6.7v2l-3.8.7v.5h27v-4.9h2v-1.2h5.6v-1.2h3.6v1.2h1.7v-.8h.8v-.3H40v-.3h2.8v.3h-.6v.3h1.1v.6h.7v.5h2.8v-.5h.6v.5h2.9v-.5h.7v.5h3.1v-.5h.7v.5H58v-.5h.5v.5h2.9v-.5h.5v.5h2.7v-.5h.4v.5h2.6v-1h1.3v-.3h-.6v-.3h2.8v.3h-.6v.3H72v.6h5.2V24h1.4v3.7h45.9v-1.9h-.7v-1.1l-.1-.2v-2.6h.1v-.1h-.1v-.1h-.1v-1.6h-.1v-.4h-.1v-.9s-.2-.8-.6-1.2c0-.1 0-.1-.1-.1V17h.2v-.1h-.2v-.2h-.1v.2h-.2v.1h.2v.5c-.1 0-.1.1-.1.1-.4.4-.6 1.2-.6 1.2v.7l.1.1v.2h-.1v.2h-.1l.1.1v1.6h-.1v.1h.1v.9l-1-.8-2.4 1.8h-.2l-.1-.1v-.7h-.1v-.1.1h-.1v.7l-.1.1v1l-.9.7-.1-.1v-.7h-.1v-.1.1h-.1v.7l-.1.1v1.2h-.3V15.7h-2.8v-1.1h-1.9V13h-.8v-.5h-.5v.5h-1v-.5h-.3v.5h-.3v-.2h-.2v.2h-1.2v-.4h-.2v.4h-2v1.6h-2.5v1.1h-.5V9.5h-1.5zm17 17.9h-.8v-.8h.8v.8zm0-.9l-.8.1v-.1c0-.2.2-.4.4-.4s.4.2.4.4zm2.9-2.7c.1 0 .1.1.1.1v-.2c0-.1.1-.1.1-.1.1 0 .1.1.1.1v.2c0-.1.1-.1.1-.1.1 0 .1.1.1.1v.9h-.8v-.9c.2 0 .3-.1.3-.1zM119 25v1.7h-.3V25c0-.1.1-.1.1-.1.2-.1.2 0 .2.1 0-.1 0-.1 0 0zm2.3 2.4h-1v-1.1h1v1.1zm0-1.2l-1 .1v-.2c0-.3.2-.5.5-.5s.5.2.5.6c0-.1 0-.1 0 0zm1.4-7.1c.1 0 .1.1.1.1 0 .1-.1.1-.1.1-.1 0-.1-.1-.1-.1-.1 0 0-.1.1-.1zm-.4.3c0 .1-.1.1-.1.1s-.1-.1 0-.2c0-.1.1-.1.1-.1v.2zm.5 5.6v1.7h-.3V25c0-.1.1-.1.1-.1.1-.1.2 0 .2.1 0-.1 0-.1 0 0zm-.3-2.1c0-.1.1-.1.1-.1.1 0 .1.1.1.1v.8h-.2v-.8zm.3-2v.5h-.3v-.5c0-.1.1-.1.2-.1 0 0 .1 0 .1.1zm.4-1.5s-.1 0-.1-.1v-.2s.1 0 .1.1v.2zm-8.5 6.7h-7.1v-.6h7.1v.6zm0-1h-7.1v-.6h7.1v.6zm0-1.1h-7.1v-.6h7.1v.6zm0-1h-7.1v-.6h7.1v.6zM93 24.6l-.4.4h-1.2l-.4-.4h2zm-2.9 0l-.4.4h-1.2l-.4-.4h2zm-3 0l-.4.4h-1.2l-.4-.4h2zm-2.9 0l-.4.4h-1.2l-.4-.4h2zm10.4 2.9H82v-1.6h12.6v1.6zm0-2.5h-.5l-.3-.4h.8v.4zm4.7 2.5H95v-.4h4.3v.4zm3.8-.7l-8.1-.4v-.6l8.2.4-.1.6zm0-1.2l-8.1-.4v-.6l8.2.4-.1.6zm-80.7-9.7h.4v.4h-.4v-.4zm-1.5 0h.4v.4h-.4v-.4zm-1.5 0h.4v.4h-.4v-.4zm.4 5.9h-.4v-.4h.4v.4zm0-1h-.4v-2.9h.4v2.9zm.5 1h-.4v-.4h.4v.4zm0-1h-.4v-2.9h.4v2.9zm0-3.3h-.9v-.7h.9v.7zm0-1.2h-.4v-.4h.4v.4zm1 5.5h-.4v-.4h.4v.4zm0-1h-.4v-2.9h.4v2.9zm.5 1h-.4v-.4h.4v.4zm0-1h-.4v-2.9h.4v2.9zm0-3.3h-.9v-.7h.9v.7zm0-1.2h-.4v-.4h.4v.4zm.9 5.5h-.4v-.4h.4v.4zm0-1h-.4v-2.9h.4v2.9zm.6 1h-.4v-.4h.4v.4zm0-1h-.4v-2.9h.4v2.9zm0-3.3h-.9v-.7h.9v.7zm0-1.2h-.4v-.4h.4v.4zm23.4 10.1h-3v-2s-.1-1.4 1.6-1.4c1.7 0 1.5 1.6 1.5 1.6l-.1 1.8zm-6.7.3c.9 0 .9.7.9.7h-1.8s0-.7.9-.7zm-6.9 0c.9 0 .9.7.9.7h-1.8c-.1 0-.1-.7.9-.7zm-2.4 0c.9 0 .9.7.9.7h-1.8s0-.7.9-.7zm23.2-.3h-3v-2s-.1-1.4 1.6-1.4c1.7 0 1.5 1.6 1.5 1.6l-.1 1.8zm-16.2.3c.9 0 .9.7.9.7h-1.8c-.1 0-.1-.7.9-.7zm-9.3 0c.9 0 .9.7.9.7h-1.8s0-.7.9-.7zm7 0c.9 0 .9.7.9.7h-1.8c-.1 0-.1-.7.9-.7zm32.8-.3h-3v-2s-.1-1.4 1.6-1.4 1.5 1.6 1.5 1.6l-.1 1.8zM59.6 23c1.7 0 1.5 1.6 1.5 1.6v1.8h-3v-2c-.1.1-.2-1.4 1.5-1.4zm-10.8 0c1.7 0 1.5 1.6 1.5 1.6v1.8h-3v-2c0 .1-.1-1.4 1.5-1.4zm8.7 3.4h-3v-2s-.1-1.4 1.6-1.4c1.7 0 1.5 1.6 1.5 1.6l-.1 1.8zm19.2.3c.9 0 .9.7.9.7h-1.8c-.1 0-.1-.7.9-.7zm-2.4 0c.9 0 .9.7.9.7h-1.8s0-.7.9-.7zm-9.7-.3h-3v-2s-.1-1.4 1.6-1.4 1.5 1.6 1.5 1.6l-.1 1.8zm7.4.3c.9 0 .9.7.9.7h-1.8s0-.7.9-.7zm-58.4-3v-.3h-.2v-.1h1.1v.5h-.9v-.1zm-3.3-.3h-.2v-.2h.6v.2h-.4zm.3-.5H8.8v-.5h1.9l-.1.5zm0-.9H8.8v-.5h1.9l-.1.5zm0-.8H8.8v-.5h1.9l-.1.5zm0-.8H8.8v-.5h1.9l-.1.5zm0-.8H8.8v-.5h1.9l-.1.5zm0-.9H8.8v-.5h1.9l-.1.5zm0-.8H8.8v-.5h1.9l-.1.5zm4.7 5h-1.9v-.5h1.9v.5zm0-.9h-1.9v-.5h1.9v.5zm0-.8h-1.9v-.5h1.9v.5zm0-.8h-1.9v-.5h1.9v.5zm0-.8h-1.9v-.5h1.9v.5zm0-.9h-1.9v-.5h1.9v.5zm0-.8h-1.9v-.5h1.9v.5zm0-.8h-1.9v-.5h1.9v.5zm9.5 7.5l-.4.4h-1.2l-.4-.4h2zm-2.9 0l-.4.4h-1.2l-.4-.4h2zm-3 0l-.4.4h-1.2l-.4-.4h2zm-2.9 0l-.4.4h-1.2l-.4-.4h2zm-3.6 0h.8l-.3.4h-.5v-.4zm-.4 2.9H7.7v-.4H12v.4zm0-1.1l-8.2.4v-.6l8.2-.4v.6zm0-1.2l-8.2.4V25l8.2-.4v.6zm13 1h-5.7v1.3h-.4v-1.3h-4.5v1.3H14v-1.3h-1.6v-.3H25v.3zm1.5-16.1h.3v.5h-.3v-.5zm0 1.2h.3v.5h-.3v-.5zm.3 8.9h-.3v-4.3h.3v4.3zm0-5h-.3v-1.6h.3v1.6zm0-2.3h-.4v-.5h1v.5h-.6zm.7 7.3h-.3v-4.3h.3v4.3zm0-5h-.3v-1.6h.3v1.6zm0-3.4h-.3v-.5h.3v.5zm0-1.2h-.3v-.5h.3v.5zm1 9.6h-.3v-4.3h.3v4.3zm0-5h-.3v-1.6h.3v1.6zm0-2.3h-.3v-.5h.3v.5zm0-1.1h-.3v-.5h.3v.5zm0-1.2h-.3v-.5h.3v.5zm.7 9.6h-.3v-4.3h.3v4.3zm0-5h-.3v-1.6h.3v1.6zm0-2.3h-.3v-.5h.3v.5zm0-1.1h-.3v-.5h.3v.5zm0-1.2h-.3v-.5h.3v.5zm.7 9.6h-.3v-4.3h.3v4.3zm0-5h-.3v-1.6h.3v1.6zm0-2.3h-.3v-.5h.3v.5zm0-1.1h-.3v-.5h.3v.5zm0-1.2h-.3v-.5h.3v.5zm.7-.5h.3v.5h-.3v-.5zm0 1.2h.3v.5h-.3v-.5zm.3 8.9h-.3v-4.3h.3v4.3zm0-5h-.3v-1.6h.3v1.6zm.7 5h-.3v-4.3h.3v4.3zm0-5h-.3v-1.6h.3v1.6zm0-2.3h-.9v-.5h.9v.5zm0-1.1h-.3v-.5h.3v.5zm0-1.2h-.3v-.5h.3v.5zm60.1 9.6H91v-.8h.7v.8zm0-1.8H91v-.5h.7v.5zm0-1.1H91v-.5h.7v.5zm0-1.1H91v-.5h.7v.5zm0-1H91v-.5h.7v.5zm0-1.1H91v-.5h.7v.5zm0-1.1H91v-.5h.7v.5zm0-1.1H91v-2h.7v2zm3.1 9.1h-2.1v-1.6h2.1V21zm0-2.6h-2.1v-.5h2.1v.5zm0-1.1h-2.1v-.5h2.1v.5zm0-1.1h-2.1v-.5h2.1v.5zm0-1.1h-2.1v-.5h2.1v.5zm0-1h-2.1v-.5h2.1v.5zm0-1.1h-2.1v-.5h2.1v.5zm0-1.1h-2.1v-1.6h2.1v1.6zm2.7 9.1h-2.1v-1.6h2.1V21zm0-2.6h-2.1v-.5h2.1v.5zm0-1.1h-2.1v-.5h2.1v.5zm0-1.1h-2.1v-.5h2.1v.5zm0-1.1h-2.1v-.5h2.1v.5zm0-1h-2.1v-.5h2.1v.5zm0-1.1h-2.1v-.5h2.1v.5zm0-1.1h-2.1v-1.6h2.1v1.6zm2.6 9.1H98v-1.6h2.1V21zm0-2.6H98v-.5h2.1v.5zm0-1.1H98v-.5h2.1v.5zm0-1.1H98v-.5h2.1v.5zm0-1.1H98v-.5h2.1v.5zm0-1H98v-.5h2.1v.5zm0-1.1H98v-.5h2.1v.5zm0-1.1H98v-1.6h2.1v1.6zm1.3 8.3h-.7v-.8h.7v.8zm0-1.8h-.7v-.5h.7v.5zm0-1.1h-.7v-.5h.7v.5zm0-1.1h-.7v-.5h.7v.5zm0-1h-.7v-.5h.7v.5zm0-1.1h-.7v-.5h.7v.5zm0-1.1h-.7v-.5h.7v.5zm0-1.1h-.7v-2h.7v2z"/><path fill="none" stroke="#6CBABF" stroke-width=".5" stroke-miterlimit="10" d="M0 27.6h124.5"/><path fill="#6CBABF" d="M76.5 35.6c.6 0 1.5.2 1.8.4.1 0 .1.1.1.2s-.1.5-.2.6c-.4-.3-1.3-.6-2.2-.7-.3.3-.9.6-1.3.6-.2 0-.4-.1-.4-.2 0-.4.7-.8 1.5-.8l.7-.1c.8-.5 1.7-1.5 1.7-2.2 0-.5-.3-.7-.7-.7-.5 0-.9.3-1.3.7 0 .1-.1 0-.1-.1.4-.5 1-1.1 1.8-1.1.3 0 .9.1.9.7.1.7-1.3 2-2.3 2.7zm-1.2.4c-.6 0-.9.1-.9.2s.1.2.4.2c.4 0 .8-.2 1.1-.4h-.6zm5 .8c-.4 0-1-.2-1-.9 0-.8.5-1.7 1.3-2.5.2-.2.6-.5.9-.6.4-.2 1.2-.5 1.4-.6.2 0 .5.2.5.9.1 1.2-1.6 3.7-3.1 3.7zm2-4.3c-.2 0-.7.1-1.2.8-.8 1-1.1 1.9-1.1 2.4s.2.9.7.9c1 0 2.1-1.5 2.1-3.3 0-.4-.1-.8-.5-.8zm2.9 3.1c.6 0 1.5.2 1.8.4.1 0 .1.1.1.2s-.1.5-.2.6c-.4-.3-1.3-.6-2.2-.7-.3.3-.9.6-1.3.6-.2 0-.4-.1-.4-.2 0-.4.7-.8 1.5-.8l.7-.1c.8-.5 1.7-1.5 1.7-2.2 0-.5-.3-.7-.7-.7-.5 0-.9.3-1.3.7 0 .1-.1 0-.1-.1.4-.5 1-1.1 1.8-1.1.3 0 .9.1.9.7.1.7-1.3 2-2.3 2.7zM84 36c-.6 0-.9.1-.9.2s.1.2.4.2c.4 0 .8-.2 1.1-.4H84zm5 .8c-.4 0-1-.2-1-.9 0-.8.5-1.7 1.3-2.5.2-.2.6-.5.9-.6.4-.2 1.2-.5 1.4-.6.2 0 .5.2.5.9.1 1.2-1.5 3.7-3.1 3.7zm2-4.3c-.2 0-.7.1-1.2.8-.8 1-1.1 1.9-1.1 2.4s.2.9.7.9c1 0 2.1-1.5 2.1-3.3 0-.4-.1-.8-.5-.8z"/></svg>