<?xml version="1.0" encoding="utf-8"?>
<!-- Generator: Adobe Illustrator 24.0.2, SVG Export Plug-In . SVG Version: 6.00 Build 0)  -->
<svg version="1.1" id="Layer_1" xmlns="http://www.w3.org/2000/svg" xmlns:xlink="http://www.w3.org/1999/xlink" x="0px" y="0px"
	 viewBox="0 0 124.5 58.9" enable-background="new 0 0 124.5 58.9" xml:space="preserve">
<path fill-rule="evenodd" clip-rule="evenodd" fill="#FFFFFF" d="M100.6,9.5V8.7h-4.2v-1h-1.9v1H92v0.9h-1.4V21h-1.1v0.6h-0.2v-9.8
	h-0.9v-1.1h-3V8.5h-0.3v2.2h-0.4v1.1h-7.6V21h-1.6v-9.9h-5V9.8h-3.7v1.3h-0.9v0.4h-3V12h-2.7v8.1h-1V15h-7.8v-1.2h-2V15h-2.1v3.2H47
	v0.2h-0.4v-0.9h-0.4v-0.7h-1.4c0,0,0-0.5-0.3-0.6v-3c0,0,0.3-0.3,0.3-0.8c-0.1-0.5-0.8-0.8-0.8-0.8s0.2-0.2,0.1-0.3
	c-0.1-0.1-0.6-0.3-0.4-0.7c0.1-0.4,0.4-0.9,0-1.3s-0.4-0.6-0.4-0.6s-0.3-3-2.4-4.3c0-0.6-0.5-0.9-0.5-0.9V2.4c0,0-0.2-0.6-0.5-0.8
	c0-0.1-0.1-0.2-0.2-0.2h0.1V1.1l0.1-0.2V0.7v0.2H40V0.7l-0.1-0.2h-0.1V0.4c0,0,0-0.1-0.1-0.1h-0.1v0.1L39.4,0l0.1,0.1
	c0,0-0.1,0.1,0,0.2l0.1,0.1v0.8l0.1,0.1c-0.1,0-0.2,0.1-0.2,0.2C39.2,1.7,39,2.3,39,2.3v1.1c0,0-0.5,0.5-0.5,0.9
	c-2.1,1.3-2.4,4.3-2.4,4.3s0,0.2-0.4,0.6c-0.4,0.4-0.1,0.9,0,1.3s-0.3,0.6-0.4,0.7c-0.1,0.1,0.1,0.3,0.1,0.3s-0.7,0.3-0.8,0.8
	s0.3,0.8,0.3,0.8v3c-0.3,0.1-0.3,0.6-0.3,0.6h-1.4v0.7h-0.4v0.9h-0.4v-0.2h-0.1v-7.4h-0.2v-1h-0.2V9.2h-1.7V7.7h-1.5V7.3h-0.5v0.3
	h-3v0.7H25v0.5l-0.5,0.7v0.8L24,10.5v0.8l-0.5,0.3v1l0.5,0.1v1h0.4v10.1H24v-8h-0.2v-0.7h-5.3l-1.4,0.4v8.3h-0.2v-0.4h-0.4v-7.1
	h-3.8v-0.9L11.1,15v1.2h-0.5v0.2h-0.3L10,16.6H8.6v-0.5H8v0.2l-1.2,0.3v6.1H5.4v1c-0.8,0.1-1.6,0.7-1.6,0.7v2L0,27.1v0.5h27v-4.9h2
	v-1.2h5.6v-1.2h3.6v1.2h1.7v-0.8h0.8v-0.3H40v-0.3h2.8v0.3h-0.6v0.3h1.1v0.6H44v0.5h2.8v-0.5h0.6v0.5h2.9v-0.5H51v0.5h3.1v-0.5h0.7
	v0.5H58v-0.5h0.5v0.5h2.9v-0.5h0.5v0.5h2.7v-0.5H65v0.5h2.6v-1h1.3v-0.3h-0.6v-0.3h2.8v0.3h-0.6v0.3H72v0.6h5.2V24h1.4v3.7h45.9
	v-1.9h-0.7v-1.1l-0.1-0.2v-2.6h0.1v-0.1h-0.1v-0.1h-0.1v-1.6h-0.1v-0.4h-0.1v-0.9c0,0-0.2-0.8-0.6-1.2c0-0.1,0-0.1-0.1-0.1V17h0.2
	v-0.1h-0.2v-0.2h-0.1v0.2h-0.2V17h0.2v0.5c-0.1,0-0.1,0.1-0.1,0.1c-0.4,0.4-0.6,1.2-0.6,1.2v0.7l0.1,0.1v0.2h-0.1V20h-0.1l0.1,0.1
	v1.6h-0.1v0.1h0.1v0.9l-1-0.8l-2.4,1.8h-0.2l-0.1-0.1v-0.7h-0.1v-0.1v0.1H118v0.7l-0.1,0.1v1l-0.9,0.7l-0.1-0.1v-0.7h-0.1v-0.1v0.1
	h-0.1v0.7l-0.1,0.1v1.2h-0.3V15.7h-2.8v-1.1h-1.9V13h-0.8v-0.5h-0.5V13h-1v-0.5H109V13h-0.3v-0.2h-0.2V13h-1.2v-0.4h-0.2V13h-2v1.6
	h-2.5v1.1h-0.5V9.5H100.6L100.6,9.5z M117.6,27.4h-0.8v-0.8h0.8V27.4z M117.6,26.5l-0.8,0.1v-0.1c0-0.2,0.2-0.4,0.4-0.4
	S117.6,26.3,117.6,26.5z M120.5,23.8c0.1,0,0.1,0.1,0.1,0.1v-0.2c0-0.1,0.1-0.1,0.1-0.1c0.1,0,0.1,0.1,0.1,0.1v0.2
	c0-0.1,0.1-0.1,0.1-0.1c0.1,0,0.1,0.1,0.1,0.1v0.9h-0.8v-0.9C120.4,23.9,120.5,23.8,120.5,23.8z M119,25v1.7h-0.3V25
	c0-0.1,0.1-0.1,0.1-0.1C119,24.8,119,24.9,119,25C119,24.9,119,24.9,119,25z M121.3,27.4h-1v-1.1h1V27.4z M121.3,26.2l-1,0.1v-0.2
	c0-0.3,0.2-0.5,0.5-0.5S121.3,25.8,121.3,26.2C121.3,26.1,121.3,26.1,121.3,26.2z M122.7,19.1c0.1,0,0.1,0.1,0.1,0.1
	c0,0.1-0.1,0.1-0.1,0.1c-0.1,0-0.1-0.1-0.1-0.1C122.5,19.2,122.6,19.1,122.7,19.1z M122.3,19.4c0,0.1-0.1,0.1-0.1,0.1
	s-0.1-0.1,0-0.2c0-0.1,0.1-0.1,0.1-0.1V19.4z M122.8,25v1.7h-0.3V25c0-0.1,0.1-0.1,0.1-0.1C122.7,24.8,122.8,24.9,122.8,25
	C122.8,24.9,122.8,24.9,122.8,25z M122.5,22.9c0-0.1,0.1-0.1,0.1-0.1c0.1,0,0.1,0.1,0.1,0.1v0.8h-0.2V22.9z M122.8,20.9v0.5h-0.3
	v-0.5c0-0.1,0.1-0.1,0.2-0.1C122.7,20.8,122.8,20.8,122.8,20.9z M123.2,19.4c0,0-0.1,0-0.1-0.1v-0.2c0,0,0.1,0,0.1,0.1V19.4z
	 M114.7,26.1h-7.1v-0.6h7.1V26.1z M114.7,25.1h-7.1v-0.6h7.1V25.1z M114.7,24h-7.1v-0.6h7.1V24z M114.7,23h-7.1v-0.6h7.1V23z
	 M93,24.6L92.6,25h-1.2L91,24.6H93z M90.1,24.6L89.7,25h-1.2l-0.4-0.4H90.1z M87.1,24.6L86.7,25h-1.2l-0.4-0.4H87.1z M84.2,24.6
	L83.8,25h-1.2l-0.4-0.4H84.2z M94.6,27.5H82v-1.6h12.6V27.5z M94.6,25h-0.5l-0.3-0.4h0.8V25z M99.3,27.5H95v-0.4h4.3V27.5z
	 M103.1,26.8L95,26.4v-0.6l8.2,0.4L103.1,26.8z M103.1,25.6L95,25.2v-0.6l8.2,0.4L103.1,25.6z M22.4,15.9h0.4v0.4h-0.4V15.9z
	 M20.9,15.9h0.4v0.4h-0.4V15.9z M19.4,15.9h0.4v0.4h-0.4V15.9z M19.8,21.8h-0.4v-0.4h0.4V21.8z M19.8,20.8h-0.4v-2.9h0.4V20.8z
	 M20.3,21.8h-0.4v-0.4h0.4V21.8z M20.3,20.8h-0.4v-2.9h0.4V20.8z M20.3,17.5h-0.9v-0.7h0.9V17.5z M20.3,16.3h-0.4v-0.4h0.4V16.3z
	 M21.3,21.8h-0.4v-0.4h0.4V21.8z M21.3,20.8h-0.4v-2.9h0.4V20.8z M21.8,21.8h-0.4v-0.4h0.4V21.8z M21.8,20.8h-0.4v-2.9h0.4V20.8z
	 M21.8,17.5h-0.9v-0.7h0.9V17.5z M21.8,16.3h-0.4v-0.4h0.4V16.3z M22.7,21.8h-0.4v-0.4h0.4V21.8z M22.7,20.8h-0.4v-2.9h0.4V20.8z
	 M23.3,21.8h-0.4v-0.4h0.4V21.8z M23.3,20.8h-0.4v-2.9h0.4V20.8z M23.3,17.5h-0.9v-0.7h0.9V17.5z M23.3,16.3h-0.4v-0.4h0.4V16.3z
	 M46.7,26.4h-3v-2c0,0-0.1-1.4,1.6-1.4c1.7,0,1.5,1.6,1.5,1.6L46.7,26.4z M40,26.7c0.9,0,0.9,0.7,0.9,0.7h-1.8
	C39.1,27.4,39.1,26.7,40,26.7z M33.1,26.7c0.9,0,0.9,0.7,0.9,0.7h-1.8C32.1,27.4,32.1,26.7,33.1,26.7z M30.7,26.7
	c0.9,0,0.9,0.7,0.9,0.7h-1.8C29.8,27.4,29.8,26.7,30.7,26.7z M53.9,26.4h-3v-2c0,0-0.1-1.4,1.6-1.4c1.7,0,1.5,1.6,1.5,1.6L53.9,26.4
	z M37.7,26.7c0.9,0,0.9,0.7,0.9,0.7h-1.8C36.7,27.4,36.7,26.7,37.7,26.7z M28.4,26.7c0.9,0,0.9,0.7,0.9,0.7h-1.8
	C27.5,27.4,27.5,26.7,28.4,26.7z M35.4,26.7c0.9,0,0.9,0.7,0.9,0.7h-1.8C34.4,27.4,34.4,26.7,35.4,26.7z M68.2,26.4h-3v-2
	c0,0-0.1-1.4,1.6-1.4s1.5,1.6,1.5,1.6L68.2,26.4z M59.6,23c1.7,0,1.5,1.6,1.5,1.6v1.8h-3v-2C58,24.5,57.9,23,59.6,23z M48.8,23
	c1.7,0,1.5,1.6,1.5,1.6v1.8h-3v-2C47.3,24.5,47.2,23,48.8,23z M57.5,26.4h-3v-2c0,0-0.1-1.4,1.6-1.4c1.7,0,1.5,1.6,1.5,1.6
	L57.5,26.4z M76.7,26.7c0.9,0,0.9,0.7,0.9,0.7h-1.8C75.7,27.4,75.7,26.7,76.7,26.7z M74.3,26.7c0.9,0,0.9,0.7,0.9,0.7h-1.8
	C73.4,27.4,73.4,26.7,74.3,26.7z M64.6,26.4h-3v-2c0,0-0.1-1.4,1.6-1.4s1.5,1.6,1.5,1.6L64.6,26.4z M72,26.7c0.9,0,0.9,0.7,0.9,0.7
	h-1.8C71.1,27.4,71.1,26.7,72,26.7z M13.6,23.7v-0.3h-0.2v-0.1h1.1v0.5h-0.9C13.6,23.8,13.6,23.7,13.6,23.7z M10.3,23.4h-0.2v-0.2
	h0.6v0.2C10.7,23.4,10.3,23.4,10.3,23.4z M10.6,22.9H8.8v-0.5h1.9L10.6,22.9z M10.6,22H8.8v-0.5h1.9L10.6,22z M10.6,21.2H8.8v-0.5
	h1.9L10.6,21.2z M10.6,20.4H8.8v-0.5h1.9L10.6,20.4z M10.6,19.6H8.8v-0.5h1.9L10.6,19.6z M10.6,18.7H8.8v-0.5h1.9L10.6,18.7z
	 M10.6,17.9H8.8v-0.5h1.9L10.6,17.9z M15.3,22.9h-1.9v-0.5h1.9V22.9z M15.3,22h-1.9v-0.5h1.9V22z M15.3,21.2h-1.9v-0.5h1.9V21.2z
	 M15.3,20.4h-1.9v-0.5h1.9V20.4z M15.3,19.6h-1.9v-0.5h1.9V19.6z M15.3,18.7h-1.9v-0.5h1.9V18.7z M15.3,17.9h-1.9v-0.5h1.9V17.9z
	 M15.3,17.1h-1.9v-0.5h1.9V17.1z M24.8,24.6L24.4,25h-1.2l-0.4-0.4H24.8z M21.9,24.6L21.5,25h-1.2l-0.4-0.4H21.9z M18.9,24.6
	L18.5,25h-1.2l-0.4-0.4H18.9z M16,24.6L15.6,25h-1.2L14,24.6H16z M12.4,24.6h0.8L12.9,25h-0.5V24.6z M12,27.5H7.7v-0.4H12V27.5z
	 M12,26.4l-8.2,0.4v-0.6l8.2-0.4V26.4z M12,25.2l-8.2,0.4V25l8.2-0.4V25.2z M25,26.2h-5.7v1.3h-0.4v-1.3h-4.5v1.3H14v-1.3h-1.6v-0.3
	H25V26.2z M26.5,10.1h0.3v0.5h-0.3V10.1z M26.5,11.3h0.3v0.5h-0.3V11.3z M26.8,20.2h-0.3v-4.3h0.3V20.2z M26.8,15.2h-0.3v-1.6h0.3
	V15.2z M26.8,12.9h-0.4v-0.5h1v0.5H26.8z M27.5,20.2h-0.3v-4.3h0.3V20.2z M27.5,15.2h-0.3v-1.6h0.3V15.2z M27.5,11.8h-0.3v-0.5h0.3
	V11.8z M27.5,10.6h-0.3v-0.5h0.3V10.6z M28.5,20.2h-0.3v-4.3h0.3V20.2z M28.5,15.2h-0.3v-1.6h0.3V15.2z M28.5,12.9h-0.3v-0.5h0.3
	V12.9z M28.5,11.8h-0.3v-0.5h0.3V11.8z M28.5,10.6h-0.3v-0.5h0.3V10.6z M29.2,20.2h-0.3v-4.3h0.3V20.2z M29.2,15.2h-0.3v-1.6h0.3
	V15.2z M29.2,12.9h-0.3v-0.5h0.3V12.9z M29.2,11.8h-0.3v-0.5h0.3V11.8z M29.2,10.6h-0.3v-0.5h0.3V10.6z M29.9,20.2h-0.3v-4.3h0.3
	V20.2z M29.9,15.2h-0.3v-1.6h0.3V15.2z M29.9,12.9h-0.3v-0.5h0.3V12.9z M29.9,11.8h-0.3v-0.5h0.3V11.8z M29.9,10.6h-0.3v-0.5h0.3
	V10.6z M30.6,10.1h0.3v0.5h-0.3V10.1z M30.6,11.3h0.3v0.5h-0.3V11.3z M30.9,20.2h-0.3v-4.3h0.3V20.2z M30.9,15.2h-0.3v-1.6h0.3V15.2
	z M31.6,20.2h-0.3v-4.3h0.3V20.2z M31.6,15.2h-0.3v-1.6h0.3V15.2z M31.6,12.9h-0.9v-0.5h0.9V12.9z M31.6,11.8h-0.3v-0.5h0.3V11.8z
	 M31.6,10.6h-0.3v-0.5h0.3V10.6z M91.7,20.2H91v-0.8h0.7V20.2z M91.7,18.4H91v-0.5h0.7V18.4z M91.7,17.3H91v-0.5h0.7V17.3z
	 M91.7,16.2H91v-0.5h0.7V16.2z M91.7,15.2H91v-0.5h0.7V15.2z M91.7,14.1H91v-0.5h0.7V14.1z M91.7,13H91v-0.5h0.7V13z M91.7,11.9H91
	v-2h0.7V11.9z M94.8,21h-2.1v-1.6h2.1V21z M94.8,18.4h-2.1v-0.5h2.1V18.4z M94.8,17.3h-2.1v-0.5h2.1V17.3z M94.8,16.2h-2.1v-0.5h2.1
	V16.2z M94.8,15.1h-2.1v-0.5h2.1V15.1z M94.8,14.1h-2.1v-0.5h2.1V14.1z M94.8,13h-2.1v-0.5h2.1V13z M94.8,11.9h-2.1v-1.6h2.1V11.9z
	 M97.5,21h-2.1v-1.6h2.1V21z M97.5,18.4h-2.1v-0.5h2.1V18.4z M97.5,17.3h-2.1v-0.5h2.1V17.3z M97.5,16.2h-2.1v-0.5h2.1V16.2z
	 M97.5,15.1h-2.1v-0.5h2.1V15.1z M97.5,14.1h-2.1v-0.5h2.1V14.1z M97.5,13h-2.1v-0.5h2.1V13z M97.5,11.9h-2.1v-1.6h2.1V11.9z
	 M100.1,21H98v-1.6h2.1V21z M100.1,18.4H98v-0.5h2.1V18.4z M100.1,17.3H98v-0.5h2.1V17.3z M100.1,16.2H98v-0.5h2.1
	C100.1,15.7,100.1,16.2,100.1,16.2z M100.1,15.1H98v-0.5h2.1V15.1z M100.1,14.1H98v-0.5h2.1V14.1z M100.1,13H98v-0.5h2.1V13z
	 M100.1,11.9H98v-1.6h2.1C100.1,10.3,100.1,11.9,100.1,11.9z M101.4,20.2h-0.7v-0.8h0.7V20.2z M101.4,18.4h-0.7v-0.5h0.7V18.4z
	 M101.4,17.3h-0.7v-0.5h0.7V17.3z M101.4,16.2h-0.7v-0.5h0.7V16.2z M101.4,15.2h-0.7v-0.5h0.7V15.2z M101.4,14.1h-0.7v-0.5h0.7V14.1
	z M101.4,13h-0.7v-0.5h0.7V13z M101.4,11.9h-0.7v-2h0.7V11.9z"/>
<path fill="#FFFFFF" d="M0,27.6h124.5"/>
<g>
	<path fill="#FFFFFF" d="M117.6,32.9c-0.5,0-0.9,0.4-0.9,1.1c0,0.5,0.4,1.1,0.9,1.1s0.9-0.4,0.9-1.1
		C118.5,33.4,117.9,32.9,117.6,32.9z M117.9,34.3v0.4h-0.2v-0.4c0-0.2-0.2-0.2-0.2-0.2h-0.2l-0.2,0.5l-0.1-1l0-0.1h0l0-0.2h0.7
		l0.2,0.2c0,0.2-0.2,0.2-0.2,0.4C117.9,34,117.9,34.2,117.9,34.3z"/>
	<path fill="#FFFFFF" d="M98.4,38.4c0.9-1.1,1.4-2.1,1.9-3.2c0.4-0.7,0.7-1.6,0.7-2.3c0-0.4-0.2-0.5-0.4-0.5h-0.4
		c-0.2,0-0.4,0.2-0.5,0.4c-0.2,0.2-0.4,0.5-0.7,0.9c-0.4,0.4-0.7,0.9-1.1,1.4c-0.2,0.2-0.4,0.5-0.7,1.1c-0.4,0.4-0.7,1.1-1.2,1.8
		s-1.1,1.6-1.8,2.7s-1.4,2.3-2.3,3.7c1.2-0.7,2.5-1.6,3.5-2.7C96.7,40.5,97.7,39.5,98.4,38.4z"/>
	<path fill="#FFFFFF" d="M117.6,33.8c0-0.2,0-0.2-0.4-0.2h-0.2l0,0.1l0.1,0.3C117.6,34,117.6,34,117.6,33.8z"/>
	<path fill="#FFFFFF" d="M31.4,47.4c0.5-0.4,0.9-0.9,1.1-1.4c-0.7,0-1.4,0.2-2.1,0.7c-0.7,0.5-1.2,1.1-1.8,1.8s-0.9,1.4-1.2,2.1
		s-0.5,1.2-0.5,1.4s0,0.2,0.2,0.2s0.4,0,0.5-0.2s0.5-0.4,0.9-0.7c0.4-0.4,0.7-0.5,1.1-1.1c0.4-0.4,0.7-0.7,0.9-1.2L31.4,47.4z"/>
	<path fill="#FFFFFF" d="M75.2,48c0.5-0.4,0.9-0.9,0.9-1.4c0-0.2-0.2-0.4-0.4-0.4c-0.2,0-0.4,0-0.7,0.2c-0.2,0.2-0.4,0.4-0.7,0.5
		c-0.2,0.2-0.4,0.5-0.5,0.9c-0.2,0.4-0.4,0.5-0.5,0.9h0.4C74.2,48.7,74.9,48.5,75.2,48z"/>
	<path fill="#FFFFFF" d="M83,47.4c0.5-0.4,0.9-0.9,1.1-1.4c-0.7,0-1.4,0.2-2.1,0.7c-0.7,0.5-1.2,1.1-1.8,1.8s-0.9,1.4-1.2,2.1
		c-0.4,0.7-0.5,1.2-0.5,1.4s0,0.2,0.2,0.2s0.4,0,0.5-0.2s0.5-0.4,0.9-0.7c0.4-0.4,0.7-0.5,1.1-1.1c0.4-0.4,0.7-0.7,0.9-1.2L83,47.4z
		"/>
	<path fill="#FFFFFF" d="M0,27.4v31.5h124.5V27.4H0z M29.5,55.9c-0.7,0.4-1.4,0.7-2.1,0.9c-0.7,0.2-1.6,0.4-2.3,0.4
		c-1.2,0-2.3-0.2-3.2-0.4c-0.9-0.2-1.8-0.5-2.5-1.1s-1.4-1.2-2.1-1.9c-0.7-0.9-1.4-1.8-2.1-2.8c-0.2-0.4-0.5-0.7-0.7-1.2
		c-0.4-0.5-0.5-1.1-0.9-1.6c-0.4-0.5-0.5-1.1-0.9-1.6c-0.4-0.5-0.5-0.9-0.7-1.2v-0.2c0.9,0,1.8,0,2.7-0.2c0.7-0.2,1.4-0.4,2.1-0.7
		c0.5-0.4,1.1-0.7,1.4-1.4c0.4-0.5,0.5-1.2,0.5-1.9c0-0.2,0-0.5-0.2-0.9c-0.2-0.4-0.4,0-0.7-0.2c-0.2-0.2-0.5-0.4-0.9-0.5
		c-0.4-0.2-0.9-0.2-1.6-0.2h-0.5c-0.2,0-0.4,0.2-0.5,0.4s-0.5,0.7-1.1,1.4c-0.5,0.7-0.9,1.4-1.4,2.3l-1.6,2.7
		c-0.5,0.9-1.1,1.9-1.6,2.8s-0.9,1.8-1.2,2.5c-0.4,0.7-0.7,1.2-0.9,1.8H4.7c-0.4,0.2-0.5,0.4-0.7,0.5H3.8c1.9-2.8,3.5-5.3,5-7.6
		c1.4-2.3,2.5-4.3,3.5-6v-0.4c0-0.2,0,0-0.2,0c-0.7,0-1.2,0.2-1.9,0.4c-0.7,0.2-1.2,0.5-1.8,0.7c-0.4,0.2-0.7,0.5-1.1,0.9
		c-0.2,0.2-0.4,0.5-0.7,0.9c-0.2-0.2,0-0.5,0-0.7c0-0.2,0.2-0.5,0.2-0.7s0.2-0.4,0.4-0.5c0.5-0.4,1.2-0.5,1.9-0.9
		c0.7-0.4,1.4-0.4,2.1-0.5c1.2-0.2,2.5-0.4,3.9-0.4c1.8,0,3,0.2,3.9,0.5c0.9,0.4,1.4,1.1,1.4,1.9c0,0.5-0.2,0.9-0.5,1.4
		s-0.7,0.9-1.2,1.4c-0.5,0.4-1.2,0.7-1.9,1.1c-0.7,0.4-1.6,0.5-2.7,0.5c-0.2,0-0.2,0-0.2,0.2c0.4,0.7,0.9,1.6,1.6,2.8
		c0.7,1.2,1.6,2.3,2.3,3.5c0.5,0.7,1.1,1.2,1.6,1.8c0.5,0.5,1.2,1.1,1.9,1.6c0.7,0.4,1.4,0.9,2.1,1.1c0.7,0.2,1.6,0.4,2.3,0.4
		c1.2,0,2.5-0.4,3.7-1.1h0.2C29.7,55.8,29.7,55.9,29.5,55.9z M47.9,37.7c-0.5,0.9-1.4,1.8-2.1,2.5c-0.7,0.7-1.6,1.6-2.7,2.5
		c-1.1,0.9-1.9,1.4-3,2.1c-0.2,0.4-0.5,0.7-0.7,1.4c-0.4,0.5-0.7,1.2-1.1,1.8c-0.4,0.7-0.5,1.2-0.9,1.9c-0.2,0.5-0.4,1.1-0.4,1.6
		c0,0.7,0.4,1.1,0.9,1.1s1.1-0.2,1.6-0.4l1.6-1.1c0.5-0.4,1.1-0.9,1.4-1.4s0.9-0.9,1.2-1.2l0.2-0.2v0.2c-0.4,0.5-0.9,0.9-1.4,1.4
		S41.5,51,41,51.3c-0.5,0.4-1.2,0.9-1.8,1.1c-0.7,0.4-1.2,0.4-1.9,0.4c-0.5,0-0.9-0.2-1.2-0.4c-0.2-0.2-0.4-0.5-0.4-0.9
		s0.2-0.9,0.5-1.6c0,0,0,0,0-0.1c-0.1,0.1-0.3,0.3-0.4,0.4c-0.5,0.5-1.2,1.1-1.8,1.6c-0.4,0.4-0.8,0.6-1.2,0.9c0,0,0,0,0,0
		c-0.2,0.1-0.4,0.2-0.5,0.3c-0.5,0.4-1.1,0.4-1.6,0.4c-0.4,0-0.7,0-0.9-0.4c-0.2-0.2-0.2-0.5-0.2-0.7c0-0.2,0-0.7,0.2-1.2
		c0.1-0.3,0.2-0.6,0.4-0.9c-0.1,0.1-0.3,0.3-0.4,0.4l-1.1,1.1c-0.4,0.4-0.7,0.5-1.1,0.9c-0.4,0.2-0.7,0.4-1.1,0.4
		c-0.4,0-0.7-0.2-0.7-0.7c0-0.5,0.1-0.9,0.4-1.5c-0.4,0.4-0.9,0.7-1.3,1c-0.5,0.4-1.2,0.7-1.8,0.9s-1.2,0.4-1.9,0.4
		c-1.1,0-1.4-0.4-1.4-1.4c0-0.5,0.2-1.2,0.5-1.9s0.7-1.2,1.2-1.9c0.5-0.5,1.1-1.1,1.6-1.4c0.5-0.4,1.1-0.5,1.6-0.5
		c0.4,0,0.5,0,0.5,0.2c0,0.2,0.2,0.2,0.2,0.4c0,0.2,0,0.5-0.2,0.9s-0.4,0.5-0.7,0.9c-0.4,0.2-0.7,0.5-1.2,0.7s-1.1,0.2-1.8,0.2
		c-0.2,0.4-0.2,0.5-0.4,1.1c-0.2,0.4-0.2,0.9-0.2,1.2c0,0.9,0.4,1.2,1.2,1.2c0.5,0,1.1-0.2,1.6-0.4c0.5-0.2,1.1-0.5,1.6-0.9
		c0.3-0.2,0.6-0.4,0.9-0.6c0,0,0,0,0-0.1c0.4-0.7,0.9-1.4,1.6-2.1c0.5-0.7,1.4-1.2,2.3-1.8s1.8-0.7,2.5-0.7c0-0.2,0.2-0.4,0.4-0.4
		c0.2,0,0.2-0.2,0.2-0.2l0.9-0.2l-0.4,0.4c0,0.2-0.2,0.4-0.4,0.5h1.1c0,0,0.2,0,0.2,0.2h-1.1c-0.9,1.8-1.8,3-2.1,4.1
		c-0.4,1.1-1.1,1.8-1.1,2.3c0,0.2,0,0.4,0.2,0.5c0,0.2,0.4,0.2,0.5,0.2c0.4,0,0.7-0.2,1.2-0.4c0.1,0,0.3-0.1,0.4-0.2c0,0,0,0,0,0
		c0.3-0.2,0.6-0.5,1-0.9c0.5-0.4,1.1-0.9,1.6-1.6c0.3-0.2,0.6-0.5,0.9-0.8c0.3-0.6,0.6-1.2,1-1.9c0.4-0.7,0.9-1.6,1.4-2.3
		c0.4-0.7,0.7-1.2,1.1-1.6c0.4-0.5,0.7-1.2,1.1-1.9c0.4-0.7,0.7-1.2,1.2-1.9c0.4-0.7,0.7-1.2,1.1-1.8c0.4-0.5,0.7-1.1,0.9-1.6
		l1.1-1.6c0.4-0.5,0.9-0.9,1.4-1.4c0.9-0.7,1.6-1.2,2.3-1.6c0.7-0.4,1.1-0.5,1.4-0.5c0.2,0,0.4,0,0.4,0.2c0.2,0.2,0.2,0.4,0.2,0.5
		c0,0.4-0.2,0.7-0.4,1.2c-0.2,0.5-0.5,1.2-1.1,1.9C49.2,35.9,48.6,36.8,47.9,37.7z M68.1,49c-0.5,0.7-1.1,1.4-1.6,1.9
		s-0.9,1.1-1.1,1.6c0,0,0,0.2-0.2,0.2c0,0-0.2,0.2-0.4,0.2s-0.5,0.2-0.9,0.2c-0.2,0-0.5,0.2-0.7,0.4c-0.2,0-0.2,0,0-0.4
		c0,0,0.2-0.4,0.2-0.7s0-0.9,0.2-1.6c0-0.5,0-1.2,0.2-2.1v-6.6c0-0.4,0-0.4-0.2-0.4c0,0-0.2,0-0.4,0.2c-0.2,0.2-0.5,0.4-0.9,0.9
		c-0.3,0.3-0.8,0.8-1.4,1.2c-0.4,0.4-0.9,0.8-1.3,1.3l-0.5,0.5l-0.3,0.3c0,0,0,0,0,0l-2.3,2.3c-0.6,0.6-1.1,1.1-1.6,1.5
		c-0.2,0.2-0.3,0.4-0.5,0.6c-0.7,0.7-1.4,1.4-1.9,2.1l-0.2,0.2h-0.2c-0.4,0-0.5,0-0.9,0.2c-0.2,0-0.5,0.2-0.7,0.2
		c-0.2,0-0.2,0,0-0.4c0.2-0.2,0.4-0.5,0.5-1.1c0.2-0.4,0.4-0.9,0.5-1.4c0-0.2,0.2-0.7,0.5-1.2c0.2-0.5,0.4-1.2,0.7-1.9
		c0.2-0.7,0.5-1.4,0.7-2.3c0.2-0.7,0.5-1.6,0.7-2.3c0.2-0.7,0.4-1.2,0.5-1.8C55,40.4,55,40,55,40c0-0.4-0.2-0.4-0.5-0.4
		c-0.4,0-0.5,0-0.9,0.2c-0.4,0-0.5,0.2-0.7,0.2c0,0-0.2,0-0.2-0.2c0,0,0-0.2,0.2-0.2c1.1-0.2,1.8-0.4,2.3-0.5
		c0.5-0.2,0.9-0.2,1.2-0.2c0.2,0,0.4-0.2,0.5-0.2h0.2c0,0,0.2,0,0.2,0.2v0.2c0,0-0.2,0.2-0.2,0.4V40c0,0.2-0.2,0.5-0.4,0.7
		c0,0.2-0.2,0.5-0.4,0.7c-0.5,1.4-1.1,3-1.6,4.8c-0.5,1.6-1.1,3.2-1.4,4.8v0.4h0.2c0.4-0.4,0.9-0.8,1.4-1.3c0.5-0.6,1.1-1.2,1.6-1.7
		c0.9-0.7,1.6-1.4,2.3-2.1l0.3-0.3l1.6-1.6c0.1-0.1,0.2-0.1,0.2-0.2c0.7-0.6,1.4-1.3,1.9-1.9c0.9-1.1,2.1-1.9,2.8-2.7H66v0.2
		c0,0-0.2,0.2-0.4,0.2c0,0.2-0.2,0.2-0.2,0.4c0,0.4,0,0.9-0.2,1.4c0,0.5,0,1.1-0.2,1.8v8.2c0,0,0.2,0,0.2-0.2
		c0.4-0.5,0.7-0.9,1.2-1.6c0.4-0.5,0.9-1.1,1.4-1.6s0.9-1.1,1.4-1.8c0.5-0.5,0.9-1.1,1.2-1.6c0.5-0.5,1.1-1.1,1.6-1.8
		c0.5-0.5,1.1-1.2,1.8-1.8c0.5-0.5,1.1-1.2,1.8-1.8l1.4-1.4c0.4-0.4,0.9-0.7,1.2-1.1c0.4-0.4,0.9-0.5,1.4-0.5H80
		c0.2,0,0.2,0,0.4,0.2c0.2,0.2,0.7,0.4,1.1,0.5l-0.4,0.2c-0.2,0-0.5,0-0.9,0.2c-0.4,0.2-1.1,0.4-1.8,0.9c-0.7,0.5-1.8,1.2-2.8,2.3
		s-2.5,2.5-4.3,4.4c-0.4,0.5-0.9,1.1-1.4,1.8C69.4,47.6,68.8,48.3,68.1,49z M95.6,52.8c-0.4,0-0.7,0-0.9-0.4
		c-0.2-0.2-0.4-0.5-0.4-1.1c0-0.4,0.2-1.1,0.5-1.9c0-0.1,0.1-0.1,0.1-0.2c-0.3,0.2-0.5,0.5-0.8,0.7c-0.5,0.5-1.1,1.1-1.6,1.4
		c-0.5,0.4-1.2,0.9-1.8,1.1c-0.7,0.4-1.2,0.4-1.9,0.4c-0.5,0-0.9-0.2-1.2-0.4c-0.2-0.2-0.4-0.5-0.4-0.9s0.2-0.9,0.5-1.6
		c0,0,0,0,0-0.1c-0.1,0.1-0.3,0.3-0.4,0.4c0,0,0,0,0,0c-0.5,0.7-1.1,1.2-1.6,1.6c-0.5,0.5-0.9,0.9-1.4,1.1c-0.2,0.1-0.4,0.2-0.6,0.2
		c-0.5,0.3-1,0.3-1.5,0.3c-0.4,0-0.7,0-0.9-0.4c-0.2-0.2-0.2-0.5-0.2-0.7c0-0.2,0-0.7,0.2-1.2c0.1-0.3,0.2-0.6,0.4-0.9
		c-0.1,0.1-0.3,0.3-0.4,0.4l-1.1,1.1c-0.4,0.4-0.7,0.5-1.1,0.9c-0.4,0.2-0.7,0.4-1.1,0.4s-0.7-0.2-0.7-0.7s0.2-1.1,0.5-1.8
		c-0.5,0.5-1.1,0.9-1.6,1.2c-0.5,0.4-1.2,0.7-1.8,0.9s-1.2,0.4-1.9,0.4c-1.1,0-1.4-0.4-1.4-1.4c0-0.5,0.2-1.2,0.5-1.9
		c0.4-0.7,0.7-1.2,1.2-1.9c0.5-0.5,1.1-1.1,1.6-1.4c0.5-0.4,1.1-0.5,1.6-0.5c0.4,0,0.5,0,0.5,0.2c0.2,0,0.2,0.2,0.2,0.4
		c0,0.2,0,0.5-0.2,0.9c-0.2,0.4-0.4,0.5-0.7,0.9c-0.4,0.2-0.7,0.5-1.2,0.7c-0.5,0.2-1.1,0.2-1.8,0.2c0,0.2-0.2,0.5-0.4,0.9
		c-0.2,0.4-0.2,0.9-0.2,1.2c0,0.9,0.4,1.2,1.2,1.2c0.5,0,1.1-0.2,1.6-0.4c0.5-0.2,1.1-0.5,1.6-0.9c0.5-0.3,0.8-0.7,1.3-1
		c0.3-0.6,0.8-1.1,1.3-1.7c0.7-0.7,1.4-1.2,2.3-1.8c0.9-0.5,1.8-0.7,2.5-0.7c0-0.2,0.2-0.4,0.4-0.4l0.2-0.2l0.9-0.2l-0.4,0.4
		c-0.2,0.2-0.2,0.4-0.4,0.5h1.1c0,0,0.2,0,0.2,0.2h-1.1c-0.9,1.8-1.8,3-2.1,4.1c-0.4,1.1-0.7,1.8-0.7,2.3c0,0.2,0,0.4,0.2,0.5
		c0.2,0.2,0.4,0.2,0.5,0.2c0.2,0,0.4-0.1,0.6-0.1c0,0,0,0,0.1,0c0.5-0.4,1.2-0.7,1.8-1.2c0.5-0.5,1.2-1.1,1.8-1.6c0,0,0,0,0,0
		c0.1-0.2,0.3-0.4,0.5-0.6c0.3-0.6,0.6-1.3,1.1-2c0.4-0.7,0.9-1.6,1.4-2.3c0.4-0.7,0.7-1.2,1.1-1.6c0.4-0.5,0.7-1.2,1.1-1.9
		c0.4-0.7,0.7-1.2,1.2-1.9c0.4-0.7,0.7-1.2,1.1-1.8c0.4-0.5,0.7-1.1,0.9-1.6l1.1-1.6c0.4-0.5,0.9-0.9,1.4-1.4
		c0.9-0.7,1.6-1.2,2.3-1.6c0.7-0.4,1.1-0.5,1.4-0.5c0.2,0,0.4,0,0.4,0.2c0,0.2,0.2,0.4,0.2,0.5c0,0.4-0.2,0.7-0.4,1.2
		c-0.2,0.5-0.5,1.2-1.1,1.9c-0.4,0.7-0.9,1.6-1.6,2.5c-0.5,0.9-1.4,1.8-2.1,2.5c-0.7,0.7-1.6,1.6-2.7,2.5c-0.9,0.7-1.9,1.4-3,2.1
		L91,46.2c-0.4,0.5-0.7,1.2-1.1,1.8c-0.4,0.7-0.5,1.2-0.9,1.9c-0.4,0.7-0.4,1.1-0.4,1.6c0,0.7,0.4,1.1,0.9,1.1s1.1-0.2,1.6-0.4
		l1.6-1.1c0.5-0.4,1.1-0.9,1.4-1.4c0.3-0.4,0.7-0.7,1-1c0.3-0.7,0.8-1.4,1.5-2.3h-1.6c0,0-0.2,0-0.2-0.2c0-0.2,0.2-0.4,0.4-0.4h1.6
		c0.2-0.4,0.4-0.7,0.7-1.1c0.2-0.4,0.5-0.7,0.7-1.2c0.2-0.4,0.5-0.7,0.7-1.1c0.2-0.4,0.5-0.7,0.7-1.1c0.2,0,0.5-0.2,0.9-0.4
		c0.4-0.2,0.7-0.4,1.1-0.4c-0.2,0.4-0.2,0.5-0.2,0.5c-0.2,0-0.4,0.2-0.5,0.2c-0.2,0.2-0.4,0.2-0.5,0.4c-0.5,0.7-0.9,1.4-1.4,2.1
		c-0.4,0.7-0.9,1.4-1.2,2.3h3.9v0.2h-4.1c-0.5,1.1-1.1,1.9-1.4,2.7c-0.4,0.7-0.5,1.4-0.5,1.9c0,0.7,0.4,1.1,1.1,1.1
		c0.4,0,0.7,0,1.2-0.2c0.4-0.2,0.9-0.4,1.4-0.7h0.2v0.2c-0.7,0.5-1.4,0.9-1.9,1.1S96.3,52.8,95.6,52.8z M117.4,35.2
		c-0.7,0-1.2-0.5-1.2-1.2c0.2-0.7,0.7-1.2,1.4-1.2c0.7,0,1.1,0.5,1.1,1.2C118.6,34.7,118.1,35.2,117.4,35.2z M121.3,32.7
		c0-0.2,0-0.4-0.2-0.5c0-0.2-0.2-0.5-0.4-0.7c-0.2-0.2-0.5-0.4-0.9-0.7c-0.4-0.2-0.9-0.2-1.6-0.2c-0.5,0-1.1,0-1.8,0.2
		c-0.5,0.2-1.2,0.5-1.9,0.9c-0.7,0.4-1.4,1.1-2.1,1.9c-0.7,0.9-1.6,1.9-2.5,3.2s-1.9,2.8-3,4.8c-1.1,1.8-2.3,4.1-3.5,6.6
		c0.2-0.2,0.3-0.3,0.6-0.5c0.1-0.1,0.2-0.2,0.3-0.2c0.3-0.2,0.5-0.3,0.7-0.4c0.1,0,0.1-0.1,0.2-0.1c0.4-0.2,0.7-0.5,1.1-0.7
		c0.4-0.2,0.7-0.4,0.9-0.4c0.2,0,0.4,0,0.4,0.2c0,0.2,0,0.4-0.4,0.5c-0.2,0.2-0.4,0.5-0.7,1.1c-0.2,0.4-0.5,0.9-0.9,1.4
		c-0.2,0.5-0.5,1.1-0.7,1.4c-0.2,0.5-0.4,0.9-0.4,1.2c0,0.4,0,0.5,0.2,0.7c0.2,0.2,0.4,0.2,0.7,0.2c0.5,0,1.2-0.4,2.1-0.9
		c0.9-0.7,1.9-1.8,3-3.2h0.2v0.2c-0.4,0.5-0.9,1.1-1.4,1.8l-1.6,1.6c-0.5,0.5-1.1,0.9-1.8,1.1c-0.5,0.4-1.1,0.4-1.6,0.4
		c-0.4,0-0.7,0-0.9-0.4c-0.2-0.2-0.2-0.5-0.2-0.9c0-0.4,0.2-0.7,0.4-1.2c0.2-0.5,0.5-1.1,0.7-1.6c0.4-0.5,0.5-1.1,0.7-1.4
		s0.4-0.7,0.4-0.9v-0.2c-0.1,0-0.2,0-0.4,0.1c-0.3,0.2-0.6,0.4-0.8,0.6c0,0-0.1,0-0.1,0.1c-0.4,0.4-0.9,1-1.6,1.9
		c-0.4,0.5-0.5,1.1-0.9,1.6c-0.4,0.5-0.5,1.1-0.9,1.6c-0.2,0.4-0.4,0.5-0.5,0.5h-0.4c-0.2,0-0.2-0.2-0.2-0.4v-0.4
		c0.9-1.6,1.8-3.2,2.7-4.6c0.9-1.4,1.8-2.8,2.5-4.3l3.2-4.8c1.1-1.6,2.3-3.2,3.4-4.6s2.3-2.5,3.5-3.4c1.2-0.9,2.3-1.2,3.5-1.2
		c0.4,0,0.5,0,0.9,0.2c0.4,0,0.5,0.2,0.9,0.4s0.5,0.4,0.7,0.7c0.4,0,0.5,0.4,0.5,0.9V32.7z"/>
	<path fill="#FFFFFF" d="M23.6,48c0.7-0.4,0.9-0.9,0.9-1.4c0-0.2-0.2-0.4-0.4-0.4c-0.2,0-0.4,0-0.7,0.2c-0.2,0.2-0.4,0.4-0.7,0.5
		c-0.2,0.2-0.4,0.5-0.5,0.9c-0.2,0.4-0.4,0.5-0.5,0.9h0.4C22.6,48.7,23.3,48.5,23.6,48z"/>
	<path fill="#FFFFFF" d="M49.2,32.4h-0.4c-0.2,0-0.4,0.2-0.5,0.4c-0.2,0.2-0.4,0.5-0.7,0.9c-0.4,0.4-0.7,0.9-1.1,1.4
		c-0.2,0.2-0.4,0.5-0.7,1.1c-0.4,0.4-0.7,1.1-1.2,1.8s-1.1,1.6-1.8,2.7c-0.7,1.1-1.4,2.3-2.3,3.7c1.2-0.7,2.5-1.6,3.5-2.7
		s2.1-2.1,2.8-3.2c0.9-1.1,1.4-2.1,1.9-3.2c0.4-0.7,0.7-1.6,0.7-2.3C49.5,32.6,49.3,32.4,49.2,32.4z"/>
</g>
</svg>
